<svg width="33" height="37" viewBox="0 0 33 37" fill="none" xmlns="http://www.w3.org/2000/svg">
<path d="M33 28.7779V8.22234C33 3.7659 25.4451 0.00012207 16.5 0.00012207C7.55494 0.00012207 0 3.7659 0 8.22234V28.7779C0 33.2343 7.55494 37.0001 16.5 37.0001C25.4451 37.0001 33 33.2343 33 28.7779ZM16.5 4.11123C24.1127 4.11123 28.7327 7.20896 28.875 8.21001C28.7327 9.23573 24.1127 12.3335 16.5 12.3335C8.88731 12.3335 4.26731 9.23573 4.125 8.23468C4.26731 7.20896 8.88731 4.11123 16.5 4.11123ZM4.125 13.5812C7.17544 15.3222 11.6263 16.4446 16.5 16.4446C21.3737 16.4446 25.8246 15.3222 28.875 13.5812V18.4878C28.7327 19.5135 24.1127 22.6112 16.5 22.6112C8.88731 22.6112 4.26731 19.5135 4.125 18.5001V13.5812ZM4.125 28.7779V23.859C7.17544 25.6 11.6263 26.7223 16.5 26.7223C21.3737 26.7223 25.8246 25.6 28.875 23.859V28.7656C28.7327 29.7913 24.1127 32.889 16.5 32.889C8.88731 32.889 4.26731 29.7913 4.125 28.7779Z" fill="white"/>
</svg>
