<svg width="143" height="48" viewBox="0 0 143 48" fill="none" xmlns="http://www.w3.org/2000/svg">
<rect width="143" height="48" rx="5" fill="#141515"/>
<path d="M22.1769 20V12.812H18.6249L18.6369 20H17.2569V11.768H23.5569V20H22.1769ZM30.5837 17.072C30.5837 17.464 30.5357 17.844 30.4397 18.212C30.3437 18.572 30.1837 18.896 29.9597 19.184C29.7437 19.464 29.4557 19.688 29.0957 19.856C28.7357 20.024 28.2877 20.108 27.7517 20.108C27.2397 20.108 26.8117 20.028 26.4677 19.868C26.1237 19.708 25.8437 19.492 25.6277 19.22C25.4197 18.94 25.2677 18.616 25.1717 18.248C25.0837 17.88 25.0397 17.492 25.0397 17.084C25.0397 16.684 25.0917 16.3 25.1957 15.932C25.2997 15.556 25.4637 15.228 25.6877 14.948C25.9117 14.66 26.1997 14.432 26.5517 14.264C26.9117 14.088 27.3437 14 27.8477 14C28.3597 14 28.7917 14.088 29.1437 14.264C29.4957 14.432 29.7757 14.66 29.9837 14.948C30.1997 15.228 30.3517 15.556 30.4397 15.932C30.5357 16.3 30.5837 16.68 30.5837 17.072ZM29.2157 17.084C29.2157 16.836 29.1997 16.588 29.1677 16.34C29.1357 16.084 29.0677 15.856 28.9637 15.656C28.8677 15.448 28.7277 15.28 28.5437 15.152C28.3677 15.024 28.1357 14.96 27.8477 14.96C27.5597 14.96 27.3197 15.024 27.1277 15.152C26.9437 15.272 26.7957 15.436 26.6837 15.644C26.5797 15.844 26.5037 16.072 26.4557 16.328C26.4157 16.576 26.3957 16.828 26.3957 17.084C26.3957 17.364 26.4117 17.628 26.4437 17.876C26.4837 18.124 26.5557 18.344 26.6597 18.536C26.7637 18.72 26.9117 18.868 27.1037 18.98C27.2957 19.092 27.5437 19.148 27.8477 19.148C28.1357 19.148 28.3677 19.088 28.5437 18.968C28.7197 18.848 28.8557 18.692 28.9517 18.5C29.0557 18.308 29.1237 18.088 29.1557 17.84C29.1957 17.592 29.2157 17.34 29.2157 17.084ZM31.7694 20V14.12H33.0654V19.076H34.9734V14.12H36.2694V19.076H38.2254V14.12H39.5334V20H31.7694ZM44.4637 20V15.056H42.7717L42.7357 15.704C42.6957 16.344 42.6517 16.928 42.6037 17.456C42.5637 17.984 42.4757 18.448 42.3397 18.848C42.2037 19.24 41.9997 19.564 41.7277 19.82C41.4557 20.076 41.0757 20.256 40.5877 20.36L40.2517 19.472C40.5637 19.352 40.8037 19.204 40.9717 19.028C41.1397 18.852 41.2637 18.62 41.3437 18.332C41.4317 18.044 41.4877 17.684 41.5117 17.252C41.5437 16.812 41.5757 16.276 41.6077 15.644L41.6797 14.12H45.7717V20H44.4637ZM51.0095 20V15.824H50.9615L50.2175 17.036C50.1055 17.204 49.9575 17.436 49.7735 17.732C49.5975 18.02 49.4135 18.316 49.2215 18.62C49.0295 18.916 48.8495 19.192 48.6815 19.448C48.5215 19.704 48.4015 19.888 48.3215 20H47.0855V14.132H48.3815V18.26H48.4415C48.5375 18.1 48.6295 17.944 48.7175 17.792C48.8135 17.632 48.9135 17.472 49.0175 17.312C49.1935 17.04 49.3775 16.76 49.5695 16.472C49.7615 16.176 49.9455 15.888 50.1215 15.608C50.3055 15.32 50.4775 15.052 50.6375 14.804C50.7975 14.548 50.9375 14.324 51.0575 14.132H52.3175V20H51.0095ZM57.4886 20V17.348H54.9326V20H53.6246V14.132H54.9446V16.412H57.4886V14.132H58.7966V20H57.4886ZM64.917 19.088H65.697L65.769 19.832C65.601 19.92 65.405 19.984 65.181 20.024C64.965 20.072 64.757 20.096 64.557 20.096C64.309 20.096 64.109 20.052 63.957 19.964C63.813 19.876 63.733 19.68 63.717 19.376C63.717 19.376 63.709 19.368 63.693 19.352C63.477 19.536 63.265 19.68 63.057 19.784C62.857 19.888 62.665 19.964 62.481 20.012C62.305 20.06 62.145 20.088 62.001 20.096C61.865 20.104 61.753 20.108 61.665 20.108C61.313 20.108 61.021 20.052 60.789 19.94C60.565 19.828 60.385 19.688 60.249 19.52C60.121 19.344 60.029 19.16 59.973 18.968C59.925 18.768 59.901 18.584 59.901 18.416C59.901 18.136 59.961 17.888 60.081 17.672C60.201 17.456 60.365 17.276 60.573 17.132C60.789 16.98 61.037 16.864 61.317 16.784C61.597 16.704 61.901 16.656 62.229 16.64L63.657 16.544V16.22C63.657 15.788 63.573 15.484 63.405 15.308C63.245 15.124 62.933 15.032 62.469 15.032C62.181 15.032 61.873 15.06 61.545 15.116C61.225 15.172 60.921 15.248 60.633 15.344C60.593 15.208 60.553 15.068 60.513 14.924C60.473 14.78 60.433 14.64 60.393 14.504C60.729 14.352 61.113 14.236 61.545 14.156C61.977 14.068 62.389 14.024 62.781 14.024C63.109 14.024 63.405 14.06 63.669 14.132C63.933 14.196 64.157 14.308 64.341 14.468C64.525 14.62 64.665 14.824 64.761 15.08C64.865 15.336 64.917 15.648 64.917 16.016V19.088ZM62.301 17.372C61.949 17.396 61.689 17.488 61.521 17.648C61.361 17.8 61.281 18.008 61.281 18.272C61.281 18.576 61.353 18.808 61.497 18.968C61.649 19.12 61.893 19.196 62.229 19.196C62.453 19.196 62.689 19.14 62.937 19.028C63.185 18.908 63.425 18.744 63.657 18.536V17.276L62.301 17.372ZM73.1608 14.132C73.7848 14.132 74.2608 14.268 74.5888 14.54C74.9168 14.812 75.0808 15.18 75.0808 15.644C75.0808 15.852 75.0288 16.072 74.9248 16.304C74.8288 16.528 74.6368 16.72 74.3488 16.88V16.892C74.5408 16.964 74.6968 17.06 74.8168 17.18C74.9368 17.292 75.0328 17.412 75.1048 17.54C75.1768 17.668 75.2248 17.804 75.2488 17.948C75.2728 18.084 75.2848 18.212 75.2848 18.332C75.2848 18.588 75.2328 18.82 75.1288 19.028C75.0328 19.228 74.8968 19.4 74.7208 19.544C74.5448 19.688 74.3408 19.8 74.1088 19.88C73.8768 19.96 73.6288 20 73.3648 20H70.1128V14.132H73.1608ZM71.4088 17.336V19.112H72.8848C73.2768 19.112 73.5528 19.02 73.7128 18.836C73.8808 18.652 73.9648 18.444 73.9648 18.212C73.9648 17.98 73.8768 17.776 73.7008 17.6C73.5248 17.424 73.2528 17.336 72.8848 17.336H71.4088ZM71.4088 15.02V16.592H72.8128C73.1168 16.592 73.3528 16.52 73.5208 16.376C73.6968 16.224 73.7848 16.032 73.7848 15.8C73.7848 15.568 73.7048 15.38 73.5448 15.236C73.3848 15.092 73.1208 15.02 72.7528 15.02H71.4088ZM81.3045 15.068H79.2645V14.12H84.6285V15.068H82.6005V20H81.3045V15.068ZM89.8428 19.088H90.6228L90.6948 19.832C90.5268 19.92 90.3308 19.984 90.1068 20.024C89.8908 20.072 89.6828 20.096 89.4828 20.096C89.2348 20.096 89.0348 20.052 88.8828 19.964C88.7388 19.876 88.6588 19.68 88.6428 19.376C88.6428 19.376 88.6348 19.368 88.6188 19.352C88.4028 19.536 88.1908 19.68 87.9828 19.784C87.7828 19.888 87.5908 19.964 87.4068 20.012C87.2308 20.06 87.0708 20.088 86.9268 20.096C86.7908 20.104 86.6788 20.108 86.5908 20.108C86.2388 20.108 85.9468 20.052 85.7148 19.94C85.4908 19.828 85.3108 19.688 85.1748 19.52C85.0468 19.344 84.9548 19.16 84.8988 18.968C84.8508 18.768 84.8268 18.584 84.8268 18.416C84.8268 18.136 84.8868 17.888 85.0068 17.672C85.1268 17.456 85.2908 17.276 85.4988 17.132C85.7148 16.98 85.9628 16.864 86.2428 16.784C86.5228 16.704 86.8268 16.656 87.1548 16.64L88.5828 16.544V16.22C88.5828 15.788 88.4988 15.484 88.3308 15.308C88.1708 15.124 87.8588 15.032 87.3948 15.032C87.1068 15.032 86.7988 15.06 86.4708 15.116C86.1508 15.172 85.8468 15.248 85.5588 15.344C85.5188 15.208 85.4788 15.068 85.4388 14.924C85.3988 14.78 85.3588 14.64 85.3188 14.504C85.6548 14.352 86.0388 14.236 86.4708 14.156C86.9028 14.068 87.3148 14.024 87.7068 14.024C88.0348 14.024 88.3308 14.06 88.5948 14.132C88.8588 14.196 89.0828 14.308 89.2668 14.468C89.4508 14.62 89.5908 14.824 89.6868 15.08C89.7908 15.336 89.8428 15.648 89.8428 16.016V19.088ZM87.2268 17.372C86.8748 17.396 86.6148 17.488 86.4468 17.648C86.2868 17.8 86.2068 18.008 86.2068 18.272C86.2068 18.576 86.2788 18.808 86.4228 18.968C86.5748 19.12 86.8188 19.196 87.1548 19.196C87.3788 19.196 87.6148 19.14 87.8628 19.028C88.1108 18.908 88.3508 18.744 88.5828 18.536V17.276L87.2268 17.372ZM91.6519 20V14.132H92.9239V16.436H93.8839C94.1399 16.436 94.3639 16.38 94.5559 16.268C94.7479 16.148 94.8879 15.928 94.9759 15.608L95.4199 14.144H96.6319L96.1759 15.764C96.1039 16.02 95.9959 16.244 95.8519 16.436C95.7159 16.62 95.5439 16.756 95.3359 16.844V16.856C95.6319 16.952 95.8559 17.088 96.0079 17.264C96.1599 17.44 96.2759 17.656 96.3559 17.912C96.4679 18.264 96.5719 18.616 96.6679 18.968C96.7719 19.312 96.8759 19.656 96.9799 20H95.7079C95.6199 19.696 95.5279 19.392 95.4319 19.088C95.3359 18.776 95.2399 18.464 95.1439 18.152V18.164C95.0799 17.98 95.0039 17.832 94.9159 17.72C94.8279 17.608 94.7279 17.52 94.6159 17.456C94.5119 17.392 94.3999 17.352 94.2799 17.336C94.1599 17.312 94.0399 17.3 93.9199 17.3H92.9239V20H91.6519ZM100.561 18.056C100.745 17.416 100.941 16.764 101.149 16.1C101.357 15.436 101.557 14.78 101.749 14.132H103.069L100.729 21.08C100.553 21.6 100.317 21.98 100.021 22.22C99.7334 22.46 99.3614 22.58 98.9054 22.58C98.8334 22.58 98.7534 22.576 98.6654 22.568C98.5854 22.568 98.4934 22.56 98.3894 22.544C98.2854 22.536 98.1654 22.516 98.0294 22.484C97.8934 22.46 97.7294 22.424 97.5374 22.376L97.7294 21.488C97.9374 21.528 98.1094 21.556 98.2454 21.572C98.3814 21.596 98.5134 21.608 98.6414 21.608C98.8894 21.608 99.0854 21.552 99.2294 21.44C99.3734 21.336 99.4974 21.132 99.6014 20.828L99.9014 19.928H99.2894C98.9854 18.952 98.6814 17.984 98.3774 17.024C98.0734 16.064 97.7694 15.1 97.4654 14.132H98.7614C98.8494 14.42 98.9414 14.732 99.0374 15.068C99.1334 15.396 99.2294 15.732 99.3254 16.076C99.4214 16.42 99.5174 16.764 99.6134 17.108C99.7094 17.444 99.8014 17.768 99.8894 18.08C99.9534 18.312 100.009 18.524 100.057 18.716C100.105 18.908 100.141 19.056 100.165 19.16H100.237L100.561 18.056ZM103.851 20V14.12H105.147V16.52H106.227C106.267 16.184 106.347 15.864 106.467 15.56C106.595 15.248 106.767 14.976 106.983 14.744C107.199 14.512 107.467 14.328 107.787 14.192C108.107 14.056 108.483 13.988 108.915 13.988C109.395 13.988 109.803 14.076 110.139 14.252C110.475 14.42 110.747 14.648 110.955 14.936C111.163 15.216 111.311 15.544 111.399 15.92C111.495 16.288 111.543 16.672 111.543 17.072C111.543 17.464 111.495 17.844 111.399 18.212C111.303 18.572 111.147 18.896 110.931 19.184C110.715 19.464 110.431 19.688 110.079 19.856C109.735 20.024 109.311 20.108 108.807 20.108C108.351 20.108 107.959 20.036 107.631 19.892C107.311 19.74 107.047 19.54 106.839 19.292C106.639 19.036 106.487 18.74 106.383 18.404C106.279 18.06 106.219 17.7 106.203 17.324H105.147V20H103.851ZM110.223 17.072C110.223 16.832 110.203 16.588 110.163 16.34C110.131 16.084 110.067 15.856 109.971 15.656C109.875 15.448 109.743 15.28 109.575 15.152C109.407 15.024 109.187 14.96 108.915 14.96C108.643 14.96 108.415 15.024 108.231 15.152C108.055 15.272 107.915 15.436 107.811 15.644C107.707 15.844 107.631 16.072 107.583 16.328C107.543 16.576 107.523 16.828 107.523 17.084C107.523 17.356 107.539 17.616 107.571 17.864C107.603 18.112 107.667 18.332 107.763 18.524C107.859 18.716 107.999 18.868 108.183 18.98C108.367 19.092 108.611 19.148 108.915 19.148C109.179 19.148 109.395 19.088 109.563 18.968C109.739 18.848 109.875 18.692 109.971 18.5C110.067 18.3 110.131 18.076 110.163 17.828C110.203 17.58 110.223 17.328 110.223 17.072ZM112.758 17.3V16.316H115.95V17.3H112.758ZM118.781 15.068H116.741V14.12H122.105V15.068H120.077V20H118.781V15.068ZM128.177 17.072C128.177 17.464 128.129 17.844 128.033 18.212C127.937 18.572 127.777 18.896 127.553 19.184C127.337 19.464 127.049 19.688 126.689 19.856C126.329 20.024 125.881 20.108 125.345 20.108C124.833 20.108 124.405 20.028 124.061 19.868C123.717 19.708 123.437 19.492 123.221 19.22C123.013 18.94 122.861 18.616 122.765 18.248C122.677 17.88 122.633 17.492 122.633 17.084C122.633 16.684 122.685 16.3 122.789 15.932C122.893 15.556 123.057 15.228 123.281 14.948C123.505 14.66 123.793 14.432 124.145 14.264C124.505 14.088 124.937 14 125.441 14C125.953 14 126.385 14.088 126.737 14.264C127.089 14.432 127.369 14.66 127.577 14.948C127.793 15.228 127.945 15.556 128.033 15.932C128.129 16.3 128.177 16.68 128.177 17.072ZM126.809 17.084C126.809 16.836 126.793 16.588 126.761 16.34C126.729 16.084 126.661 15.856 126.557 15.656C126.461 15.448 126.321 15.28 126.137 15.152C125.961 15.024 125.729 14.96 125.441 14.96C125.153 14.96 124.913 15.024 124.721 15.152C124.537 15.272 124.389 15.436 124.277 15.644C124.173 15.844 124.097 16.072 124.049 16.328C124.009 16.576 123.989 16.828 123.989 17.084C123.989 17.364 124.005 17.628 124.037 17.876C124.077 18.124 124.149 18.344 124.253 18.536C124.357 18.72 124.505 18.868 124.697 18.98C124.889 19.092 125.137 19.148 125.441 19.148C125.729 19.148 125.961 19.088 126.137 18.968C126.313 18.848 126.449 18.692 126.545 18.5C126.649 18.308 126.717 18.088 126.749 17.84C126.789 17.592 126.809 17.34 126.809 17.084ZM47.4948 31.048C47.4948 31.352 47.5188 31.628 47.5668 31.876C47.6228 32.124 47.7108 32.336 47.8308 32.512C47.9508 32.688 48.1108 32.828 48.3108 32.932C48.5108 33.028 48.7628 33.076 49.0668 33.076C49.3628 33.076 49.6388 33.048 49.8948 32.992C50.1588 32.928 50.4308 32.84 50.7108 32.728L50.9988 33.604C50.7268 33.748 50.4028 33.864 50.0268 33.952C49.6588 34.04 49.2748 34.084 48.8748 34.084C48.3548 34.084 47.9188 34.008 47.5668 33.856C47.2228 33.704 46.9468 33.496 46.7388 33.232C46.5308 32.968 46.3828 32.656 46.2948 32.296C46.2068 31.936 46.1628 31.548 46.1628 31.132C46.1628 30.804 46.1988 30.456 46.2708 30.088C46.3508 29.72 46.4908 29.384 46.6908 29.08C46.8988 28.768 47.1828 28.512 47.5428 28.312C47.9028 28.104 48.3708 28 48.9468 28C49.2028 28 49.4788 28.02 49.7748 28.06C50.0708 28.092 50.3788 28.168 50.6988 28.288L50.4588 29.224C50.1868 29.136 49.9388 29.084 49.7148 29.068C49.4988 29.044 49.2988 29.032 49.1148 29.032C48.5868 29.032 48.1828 29.212 47.9028 29.572C47.6308 29.932 47.4948 30.424 47.4948 31.048ZM53.4198 29.068H51.3798V28.12H56.7438V29.068H54.7158V34H53.4198V29.068ZM58.8413 28.696C59.1053 28.488 59.3893 28.328 59.6933 28.216C60.0053 28.104 60.3093 28.048 60.6053 28.048C61.0373 28.048 61.3973 28.128 61.6853 28.288C61.9813 28.44 62.2133 28.652 62.3813 28.924C62.5573 29.196 62.6813 29.512 62.7533 29.872C62.8253 30.224 62.8613 30.604 62.8613 31.012C62.8613 31.444 62.8173 31.848 62.7293 32.224C62.6413 32.6 62.5013 32.928 62.3093 33.208C62.1173 33.488 61.8653 33.708 61.5533 33.868C61.2493 34.028 60.8773 34.108 60.4373 34.108C60.3253 34.108 60.2013 34.1 60.0653 34.084C59.9293 34.076 59.7893 34.056 59.6453 34.024C59.5013 34 59.3573 33.964 59.2133 33.916C59.0693 33.868 58.9373 33.804 58.8173 33.724V36.496H57.5093V28.12H58.7573L58.7813 28.648L58.8413 28.696ZM60.1613 33.16C60.3373 33.16 60.5093 33.128 60.6773 33.064C60.8453 32.992 60.9933 32.872 61.1213 32.704C61.2493 32.536 61.3493 32.312 61.4213 32.032C61.5013 31.744 61.5413 31.388 61.5413 30.964C61.5413 30.588 61.5093 30.276 61.4453 30.028C61.3813 29.78 61.2893 29.584 61.1693 29.44C61.0493 29.296 60.9053 29.196 60.7373 29.14C60.5773 29.076 60.4013 29.044 60.2093 29.044C60.0973 29.044 59.9733 29.06 59.8373 29.092C59.7093 29.124 59.5813 29.168 59.4533 29.224C59.3253 29.272 59.2053 29.328 59.0933 29.392C58.9813 29.456 58.8933 29.52 58.8293 29.584V32.788C58.8933 32.836 58.9773 32.884 59.0813 32.932C59.1853 32.972 59.2973 33.012 59.4173 33.052C59.5373 33.084 59.6613 33.112 59.7893 33.136C59.9173 33.152 60.0413 33.16 60.1613 33.16ZM66.5712 32.056C66.7552 31.416 66.9512 30.764 67.1592 30.1C67.3672 29.436 67.5672 28.78 67.7592 28.132H69.0792L66.7392 35.08C66.5632 35.6 66.3272 35.98 66.0312 36.22C65.7432 36.46 65.3712 36.58 64.9152 36.58C64.8432 36.58 64.7632 36.576 64.6752 36.568C64.5952 36.568 64.5032 36.56 64.3992 36.544C64.2952 36.536 64.1752 36.516 64.0392 36.484C63.9032 36.46 63.7392 36.424 63.5472 36.376L63.7392 35.488C63.9472 35.528 64.1192 35.556 64.2552 35.572C64.3912 35.596 64.5232 35.608 64.6512 35.608C64.8992 35.608 65.0952 35.552 65.2392 35.44C65.3832 35.336 65.5072 35.132 65.6112 34.828L65.9112 33.928H65.2992C64.9952 32.952 64.6912 31.984 64.3872 31.024C64.0832 30.064 63.7792 29.1 63.4752 28.132H64.7712C64.8592 28.42 64.9512 28.732 65.0472 29.068C65.1432 29.396 65.2392 29.732 65.3352 30.076C65.4312 30.42 65.5272 30.764 65.6232 31.108C65.7192 31.444 65.8112 31.768 65.8992 32.08C65.9632 32.312 66.0192 32.524 66.0672 32.716C66.1152 32.908 66.1512 33.056 66.1752 33.16H66.2472L66.5712 32.056ZM69.8609 34V28.132H71.1329V30.436H72.0929C72.3489 30.436 72.5729 30.38 72.7649 30.268C72.9569 30.148 73.0969 29.928 73.1849 29.608L73.6289 28.144H74.8409L74.3849 29.764C74.3129 30.02 74.2049 30.244 74.0609 30.436C73.9249 30.62 73.7529 30.756 73.5449 30.844V30.856C73.8409 30.952 74.0649 31.088 74.2169 31.264C74.3689 31.44 74.4849 31.656 74.5649 31.912C74.6769 32.264 74.7809 32.616 74.8769 32.968C74.9809 33.312 75.0849 33.656 75.1889 34H73.9169C73.8289 33.696 73.7369 33.392 73.6409 33.088C73.5449 32.776 73.4489 32.464 73.3529 32.152V32.164C73.2889 31.98 73.2129 31.832 73.1249 31.72C73.0369 31.608 72.9369 31.52 72.8249 31.456C72.7209 31.392 72.6089 31.352 72.4889 31.336C72.3689 31.312 72.2489 31.3 72.1289 31.3H71.1329V34H69.8609ZM77.6424 29.068H75.6024V28.12H80.9664V29.068H78.9384V34H77.6424V29.068ZM84.372 32.056C84.556 31.416 84.752 30.764 84.96 30.1C85.168 29.436 85.368 28.78 85.56 28.132H86.88L84.54 35.08C84.364 35.6 84.128 35.98 83.832 36.22C83.544 36.46 83.172 36.58 82.716 36.58C82.644 36.58 82.564 36.576 82.476 36.568C82.396 36.568 82.304 36.56 82.2 36.544C82.096 36.536 81.976 36.516 81.84 36.484C81.704 36.46 81.54 36.424 81.348 36.376L81.54 35.488C81.748 35.528 81.92 35.556 82.056 35.572C82.192 35.596 82.324 35.608 82.452 35.608C82.7 35.608 82.896 35.552 83.04 35.44C83.184 35.336 83.308 35.132 83.412 34.828L83.712 33.928H83.1C82.796 32.952 82.492 31.984 82.188 31.024C81.884 30.064 81.58 29.1 81.276 28.132H82.572C82.66 28.42 82.752 28.732 82.848 29.068C82.944 29.396 83.04 29.732 83.136 30.076C83.232 30.42 83.328 30.764 83.424 31.108C83.52 31.444 83.612 31.768 83.7 32.08C83.764 32.312 83.82 32.524 83.868 32.716C83.916 32.908 83.952 33.056 83.976 33.16H84.048L84.372 32.056ZM88.9937 28.696C89.2577 28.488 89.5417 28.328 89.8457 28.216C90.1577 28.104 90.4617 28.048 90.7577 28.048C91.1897 28.048 91.5497 28.128 91.8377 28.288C92.1337 28.44 92.3657 28.652 92.5337 28.924C92.7097 29.196 92.8337 29.512 92.9057 29.872C92.9777 30.224 93.0137 30.604 93.0137 31.012C93.0137 31.444 92.9697 31.848 92.8817 32.224C92.7937 32.6 92.6537 32.928 92.4617 33.208C92.2697 33.488 92.0177 33.708 91.7057 33.868C91.4017 34.028 91.0297 34.108 90.5897 34.108C90.4777 34.108 90.3537 34.1 90.2177 34.084C90.0817 34.076 89.9417 34.056 89.7977 34.024C89.6537 34 89.5097 33.964 89.3657 33.916C89.2217 33.868 89.0897 33.804 88.9697 33.724V36.496H87.6617V28.12H88.9097L88.9337 28.648L88.9937 28.696ZM90.3137 33.16C90.4897 33.16 90.6617 33.128 90.8297 33.064C90.9977 32.992 91.1457 32.872 91.2737 32.704C91.4017 32.536 91.5017 32.312 91.5737 32.032C91.6537 31.744 91.6937 31.388 91.6937 30.964C91.6937 30.588 91.6617 30.276 91.5977 30.028C91.5337 29.78 91.4417 29.584 91.3217 29.44C91.2017 29.296 91.0577 29.196 90.8897 29.14C90.7297 29.076 90.5537 29.044 90.3617 29.044C90.2497 29.044 90.1257 29.06 89.9897 29.092C89.8617 29.124 89.7337 29.168 89.6057 29.224C89.4777 29.272 89.3577 29.328 89.2457 29.392C89.1337 29.456 89.0457 29.52 88.9817 29.584V32.788C89.0457 32.836 89.1297 32.884 89.2337 32.932C89.3377 32.972 89.4497 33.012 89.5697 33.052C89.6897 33.084 89.8137 33.112 89.9417 33.136C90.0697 33.152 90.1937 33.16 90.3137 33.16ZM96.7235 32.056C96.9075 31.416 97.1035 30.764 97.3115 30.1C97.5195 29.436 97.7195 28.78 97.9115 28.132H99.2315L96.8915 35.08C96.7155 35.6 96.4795 35.98 96.1835 36.22C95.8955 36.46 95.5235 36.58 95.0675 36.58C94.9955 36.58 94.9155 36.576 94.8275 36.568C94.7475 36.568 94.6555 36.56 94.5515 36.544C94.4475 36.536 94.3275 36.516 94.1915 36.484C94.0555 36.46 93.8915 36.424 93.6995 36.376L93.8915 35.488C94.0995 35.528 94.2715 35.556 94.4075 35.572C94.5435 35.596 94.6755 35.608 94.8035 35.608C95.0515 35.608 95.2475 35.552 95.3915 35.44C95.5355 35.336 95.6595 35.132 95.7635 34.828L96.0635 33.928H95.4515C95.1475 32.952 94.8435 31.984 94.5395 31.024C94.2355 30.064 93.9315 29.1 93.6275 28.132H94.9235C95.0115 28.42 95.1035 28.732 95.1995 29.068C95.2955 29.396 95.3915 29.732 95.4875 30.076C95.5835 30.42 95.6795 30.764 95.7755 31.108C95.8715 31.444 95.9635 31.768 96.0515 32.08C96.1155 32.312 96.1715 32.524 96.2195 32.716C96.2675 32.908 96.3035 33.056 96.3275 33.16H96.3995L96.7235 32.056Z" fill="white"/>
</svg>
