<svg width="112" height="24" viewBox="0 0 112 24" fill="none" xmlns="http://www.w3.org/2000/svg">
<circle cx="9.0093" cy="11.8715" r="7.58266" stroke="#E01E2E"/>
<rect x="26" width="86" height="24" rx="5" fill="#141515"/>
<circle cx="9.0093" cy="11.8715" r="5.8783" fill="#E01E2E"/>
<path d="M49.7191 7.636C50.1111 7.636 50.4791 7.672 50.8231 7.744C51.1751 7.808 51.4831 7.92 51.7471 8.08C52.0111 8.24 52.2191 8.448 52.3711 8.704C52.5231 8.96 52.5991 9.28 52.5991 9.664C52.5991 9.976 52.4951 10.304 52.2871 10.648C52.0791 10.984 51.7671 11.248 51.3511 11.44L51.3751 11.5C51.7991 11.636 52.1471 11.88 52.4191 12.232C52.6911 12.584 52.8271 12.992 52.8271 13.456C52.8271 13.888 52.7391 14.268 52.5631 14.596C52.3871 14.916 52.1471 15.188 51.8431 15.412C51.5471 15.628 51.1951 15.792 50.7871 15.904C50.3871 16.008 49.9551 16.06 49.4911 16.06C49.2911 16.06 49.0711 16.052 48.8311 16.036C48.5991 16.02 48.3591 15.992 48.1111 15.952C47.8631 15.912 47.6191 15.864 47.3791 15.808C47.1471 15.744 46.9311 15.664 46.7311 15.568L47.0311 14.656C47.4631 14.792 47.8551 14.888 48.2071 14.944C48.5591 15 48.9111 15.028 49.2631 15.028C49.9751 15.028 50.5111 14.896 50.8711 14.632C51.2391 14.36 51.4231 13.96 51.4231 13.432C51.4231 13.208 51.3751 13.008 51.2791 12.832C51.1831 12.656 51.0511 12.508 50.8831 12.388C50.7151 12.268 50.5151 12.18 50.2831 12.124C50.0591 12.06 49.8151 12.028 49.5511 12.028H48.5311V11.128H49.4791C49.7431 11.128 49.9791 11.092 50.1871 11.02C50.3951 10.94 50.5711 10.836 50.7151 10.708C50.8671 10.58 50.9831 10.44 51.0631 10.288C51.1431 10.128 51.1831 9.968 51.1831 9.808C51.1831 9.384 51.0311 9.084 50.7271 8.908C50.4311 8.732 50.0191 8.644 49.4911 8.644C49.2351 8.644 48.9111 8.676 48.5191 8.74C48.1271 8.804 47.7431 8.916 47.3671 9.076L47.0791 8.188C47.2471 8.108 47.4351 8.036 47.6431 7.972C47.8511 7.9 48.0711 7.84 48.3031 7.792C48.5351 7.744 48.7711 7.708 49.0111 7.684C49.2511 7.652 49.4871 7.636 49.7191 7.636ZM58.8975 15.088H59.6775L59.7495 15.832C59.5815 15.92 59.3855 15.984 59.1615 16.024C58.9455 16.072 58.7375 16.096 58.5375 16.096C58.2895 16.096 58.0895 16.052 57.9375 15.964C57.7935 15.876 57.7135 15.68 57.6975 15.376C57.6975 15.376 57.6895 15.368 57.6735 15.352C57.4575 15.536 57.2455 15.68 57.0375 15.784C56.8375 15.888 56.6455 15.964 56.4615 16.012C56.2855 16.06 56.1255 16.088 55.9815 16.096C55.8455 16.104 55.7335 16.108 55.6455 16.108C55.2935 16.108 55.0015 16.052 54.7695 15.94C54.5455 15.828 54.3655 15.688 54.2295 15.52C54.1015 15.344 54.0095 15.16 53.9535 14.968C53.9055 14.768 53.8815 14.584 53.8815 14.416C53.8815 14.136 53.9415 13.888 54.0615 13.672C54.1815 13.456 54.3455 13.276 54.5535 13.132C54.7695 12.98 55.0175 12.864 55.2975 12.784C55.5775 12.704 55.8815 12.656 56.2095 12.64L57.6375 12.544V12.22C57.6375 11.788 57.5535 11.484 57.3855 11.308C57.2255 11.124 56.9135 11.032 56.4495 11.032C56.1615 11.032 55.8535 11.06 55.5255 11.116C55.2055 11.172 54.9015 11.248 54.6135 11.344C54.5735 11.208 54.5335 11.068 54.4935 10.924C54.4535 10.78 54.4135 10.64 54.3735 10.504C54.7095 10.352 55.0935 10.236 55.5255 10.156C55.9575 10.068 56.3695 10.024 56.7615 10.024C57.0895 10.024 57.3855 10.06 57.6495 10.132C57.9135 10.196 58.1375 10.308 58.3215 10.468C58.5055 10.62 58.6455 10.824 58.7415 11.08C58.8455 11.336 58.8975 11.648 58.8975 12.016V15.088ZM56.2815 13.372C55.9295 13.396 55.6695 13.488 55.5015 13.648C55.3415 13.8 55.2615 14.008 55.2615 14.272C55.2615 14.576 55.3335 14.808 55.4775 14.968C55.6295 15.12 55.8735 15.196 56.2095 15.196C56.4335 15.196 56.6695 15.14 56.9175 15.028C57.1655 14.908 57.4055 14.744 57.6375 14.536V13.276L56.2815 13.372ZM60.7066 16V10.132H61.9786V12.436H62.9386C63.1946 12.436 63.4186 12.38 63.6106 12.268C63.8026 12.148 63.9426 11.928 64.0306 11.608L64.4746 10.144H65.6866L65.2306 11.764C65.1586 12.02 65.0506 12.244 64.9066 12.436C64.7706 12.62 64.5986 12.756 64.3906 12.844V12.856C64.6866 12.952 64.9106 13.088 65.0626 13.264C65.2146 13.44 65.3306 13.656 65.4106 13.912C65.5226 14.264 65.6266 14.616 65.7226 14.968C65.8266 15.312 65.9306 15.656 66.0346 16H64.7626C64.6746 15.696 64.5826 15.392 64.4866 15.088C64.3906 14.776 64.2946 14.464 64.1986 14.152V14.164C64.1346 13.98 64.0586 13.832 63.9706 13.72C63.8826 13.608 63.7826 13.52 63.6706 13.456C63.5666 13.392 63.4546 13.352 63.3346 13.336C63.2146 13.312 63.0946 13.3 62.9746 13.3H61.9786V16H60.7066ZM69.6161 14.056C69.8001 13.416 69.9961 12.764 70.2041 12.1C70.4121 11.436 70.6121 10.78 70.8041 10.132H72.1241L69.7841 17.08C69.6081 17.6 69.3721 17.98 69.0761 18.22C68.7881 18.46 68.4161 18.58 67.9601 18.58C67.8881 18.58 67.8081 18.576 67.7201 18.568C67.6401 18.568 67.5481 18.56 67.4441 18.544C67.3401 18.536 67.2201 18.516 67.0841 18.484C66.9481 18.46 66.7841 18.424 66.5921 18.376L66.7841 17.488C66.9921 17.528 67.1641 17.556 67.3001 17.572C67.4361 17.596 67.5681 17.608 67.6961 17.608C67.9441 17.608 68.1401 17.552 68.2841 17.44C68.4281 17.336 68.5521 17.132 68.6561 16.828L68.9561 15.928H68.3441C68.0401 14.952 67.7361 13.984 67.4321 13.024C67.1281 12.064 66.8241 11.1 66.5201 10.132H67.8161C67.9041 10.42 67.9961 10.732 68.0921 11.068C68.1881 11.396 68.2841 11.732 68.3801 12.076C68.4761 12.42 68.5721 12.764 68.6681 13.108C68.7641 13.444 68.8561 13.768 68.9441 14.08C69.0081 14.312 69.0641 14.524 69.1121 14.716C69.1601 14.908 69.1961 15.056 69.2201 15.16H69.2921L69.6161 14.056ZM76.7578 16V11.044H74.2138V16H72.9058V10.132H78.0778C78.0778 10.54 78.0778 11 78.0778 11.512C78.0778 12.016 78.0738 12.536 78.0658 13.072C78.0658 13.6 78.0658 14.12 78.0658 14.632C78.0658 15.144 78.0658 15.6 78.0658 16H76.7578ZM79.3863 16V10.132H80.6583V12.436H81.6183C81.8743 12.436 82.0983 12.38 82.2903 12.268C82.4823 12.148 82.6223 11.928 82.7103 11.608L83.1543 10.144H84.3663L83.9103 11.764C83.8383 12.02 83.7303 12.244 83.5863 12.436C83.4503 12.62 83.2783 12.756 83.0703 12.844V12.856C83.3663 12.952 83.5903 13.088 83.7423 13.264C83.8943 13.44 84.0103 13.656 84.0903 13.912C84.2023 14.264 84.3063 14.616 84.4023 14.968C84.5063 15.312 84.6103 15.656 84.7143 16H83.4423C83.3543 15.696 83.2623 15.392 83.1663 15.088C83.0703 14.776 82.9743 14.464 82.8783 14.152V14.164C82.8143 13.98 82.7383 13.832 82.6503 13.72C82.5623 13.608 82.4623 13.52 82.3503 13.456C82.2463 13.392 82.1343 13.352 82.0143 13.336C81.8943 13.312 81.7743 13.3 81.6543 13.3H80.6583V16H79.3863ZM90.4678 15.088H91.2478L91.3198 15.832C91.1518 15.92 90.9558 15.984 90.7318 16.024C90.5158 16.072 90.3078 16.096 90.1078 16.096C89.8598 16.096 89.6598 16.052 89.5078 15.964C89.3638 15.876 89.2838 15.68 89.2678 15.376C89.2678 15.376 89.2598 15.368 89.2438 15.352C89.0278 15.536 88.8158 15.68 88.6078 15.784C88.4078 15.888 88.2158 15.964 88.0318 16.012C87.8558 16.06 87.6958 16.088 87.5518 16.096C87.4158 16.104 87.3038 16.108 87.2158 16.108C86.8638 16.108 86.5718 16.052 86.3398 15.94C86.1158 15.828 85.9358 15.688 85.7998 15.52C85.6718 15.344 85.5798 15.16 85.5238 14.968C85.4758 14.768 85.4518 14.584 85.4518 14.416C85.4518 14.136 85.5118 13.888 85.6318 13.672C85.7518 13.456 85.9158 13.276 86.1238 13.132C86.3398 12.98 86.5878 12.864 86.8678 12.784C87.1478 12.704 87.4518 12.656 87.7798 12.64L89.2078 12.544V12.22C89.2078 11.788 89.1238 11.484 88.9558 11.308C88.7958 11.124 88.4838 11.032 88.0198 11.032C87.7318 11.032 87.4238 11.06 87.0958 11.116C86.7758 11.172 86.4718 11.248 86.1838 11.344C86.1438 11.208 86.1038 11.068 86.0638 10.924C86.0238 10.78 85.9838 10.64 85.9438 10.504C86.2798 10.352 86.6638 10.236 87.0958 10.156C87.5278 10.068 87.9398 10.024 88.3318 10.024C88.6598 10.024 88.9558 10.06 89.2198 10.132C89.4838 10.196 89.7078 10.308 89.8918 10.468C90.0758 10.62 90.2158 10.824 90.3118 11.08C90.4158 11.336 90.4678 11.648 90.4678 12.016V15.088ZM87.8518 13.372C87.4998 13.396 87.2398 13.488 87.0718 13.648C86.9118 13.8 86.8318 14.008 86.8318 14.272C86.8318 14.576 86.9038 14.808 87.0478 14.968C87.1998 15.12 87.4438 15.196 87.7798 15.196C88.0038 15.196 88.2398 15.14 88.4878 15.028C88.7358 14.908 88.9758 14.744 89.2078 14.536V13.276L87.8518 13.372Z" fill="white"/>
</svg>
