<svg width="88" height="24" viewBox="0 0 88 24" fill="none" xmlns="http://www.w3.org/2000/svg">
<rect width="88" height="24" rx="5" fill="#141515"/>
<path d="M24.4855 15V7.812H20.9335L20.9455 15H19.5655V6.768H25.8655V15H24.4855ZM28.8003 9.696C29.0643 9.488 29.3483 9.328 29.6523 9.216C29.9643 9.104 30.2683 9.048 30.5643 9.048C30.9963 9.048 31.3563 9.128 31.6443 9.288C31.9403 9.44 32.1723 9.652 32.3403 9.924C32.5163 10.196 32.6403 10.512 32.7123 10.872C32.7843 11.224 32.8203 11.604 32.8203 12.012C32.8203 12.444 32.7763 12.848 32.6883 13.224C32.6003 13.6 32.4603 13.928 32.2683 14.208C32.0763 14.488 31.8243 14.708 31.5123 14.868C31.2083 15.028 30.8363 15.108 30.3963 15.108C30.2843 15.108 30.1603 15.1 30.0243 15.084C29.8883 15.076 29.7483 15.056 29.6043 15.024C29.4603 15 29.3163 14.964 29.1723 14.916C29.0283 14.868 28.8963 14.804 28.7763 14.724V17.496H27.4683V9.12H28.7163L28.7403 9.648L28.8003 9.696ZM30.1203 14.16C30.2963 14.16 30.4683 14.128 30.6363 14.064C30.8043 13.992 30.9523 13.872 31.0803 13.704C31.2083 13.536 31.3083 13.312 31.3803 13.032C31.4603 12.744 31.5003 12.388 31.5003 11.964C31.5003 11.588 31.4683 11.276 31.4043 11.028C31.3403 10.78 31.2483 10.584 31.1283 10.44C31.0083 10.296 30.8643 10.196 30.6963 10.14C30.5363 10.076 30.3603 10.044 30.1683 10.044C30.0563 10.044 29.9323 10.06 29.7963 10.092C29.6683 10.124 29.5403 10.168 29.4123 10.224C29.2843 10.272 29.1643 10.328 29.0523 10.392C28.9403 10.456 28.8523 10.52 28.7883 10.584V13.788C28.8523 13.836 28.9363 13.884 29.0403 13.932C29.1443 13.972 29.2563 14.012 29.3763 14.052C29.4963 14.084 29.6203 14.112 29.7483 14.136C29.8763 14.152 30.0003 14.16 30.1203 14.16ZM39.4314 12.072C39.4314 12.464 39.3834 12.844 39.2874 13.212C39.1914 13.572 39.0314 13.896 38.8074 14.184C38.5914 14.464 38.3034 14.688 37.9434 14.856C37.5834 15.024 37.1354 15.108 36.5994 15.108C36.0874 15.108 35.6594 15.028 35.3154 14.868C34.9714 14.708 34.6914 14.492 34.4754 14.22C34.2674 13.94 34.1154 13.616 34.0194 13.248C33.9314 12.88 33.8874 12.492 33.8874 12.084C33.8874 11.684 33.9394 11.3 34.0434 10.932C34.1474 10.556 34.3114 10.228 34.5354 9.948C34.7594 9.66 35.0474 9.432 35.3994 9.264C35.7594 9.088 36.1914 9 36.6954 9C37.2074 9 37.6394 9.088 37.9914 9.264C38.3434 9.432 38.6234 9.66 38.8314 9.948C39.0474 10.228 39.1994 10.556 39.2874 10.932C39.3834 11.3 39.4314 11.68 39.4314 12.072ZM38.0634 12.084C38.0634 11.836 38.0474 11.588 38.0154 11.34C37.9834 11.084 37.9154 10.856 37.8114 10.656C37.7154 10.448 37.5754 10.28 37.3914 10.152C37.2154 10.024 36.9834 9.96 36.6954 9.96C36.4074 9.96 36.1674 10.024 35.9754 10.152C35.7914 10.272 35.6434 10.436 35.5314 10.644C35.4274 10.844 35.3514 11.072 35.3034 11.328C35.2634 11.576 35.2434 11.828 35.2434 12.084C35.2434 12.364 35.2594 12.628 35.2914 12.876C35.3314 13.124 35.4034 13.344 35.5074 13.536C35.6114 13.72 35.7594 13.868 35.9514 13.98C36.1434 14.092 36.3914 14.148 36.6954 14.148C36.9834 14.148 37.2154 14.088 37.3914 13.968C37.5674 13.848 37.7034 13.692 37.7994 13.5C37.9034 13.308 37.9714 13.088 38.0034 12.84C38.0434 12.592 38.0634 12.34 38.0634 12.084ZM45.7798 14.076L46.3918 14.088V16.704H45.4078V15H41.0278V16.692H40.0198V14.088L40.5598 14.076C40.7518 13.9 40.9038 13.696 41.0158 13.464C41.1358 13.232 41.2278 12.964 41.2918 12.66C41.3638 12.348 41.4158 12 41.4478 11.616C41.4878 11.224 41.5238 10.78 41.5558 10.284L41.6278 9.12H45.7918L45.7798 14.076ZM42.7318 10.056L42.7078 10.548C42.6838 11.012 42.6558 11.428 42.6238 11.796C42.5998 12.156 42.5598 12.48 42.5038 12.768C42.4478 13.056 42.3758 13.308 42.2878 13.524C42.2078 13.732 42.0998 13.916 41.9638 14.076H44.5198V10.056H42.7318ZM52.2491 14.088H53.0291L53.1011 14.832C52.9331 14.92 52.7371 14.984 52.5131 15.024C52.2971 15.072 52.0891 15.096 51.8891 15.096C51.6411 15.096 51.4411 15.052 51.2891 14.964C51.1451 14.876 51.0651 14.68 51.0491 14.376C51.0491 14.376 51.0411 14.368 51.0251 14.352C50.8091 14.536 50.5971 14.68 50.3891 14.784C50.1891 14.888 49.9971 14.964 49.8131 15.012C49.6371 15.06 49.4771 15.088 49.3331 15.096C49.1971 15.104 49.0851 15.108 48.9971 15.108C48.6451 15.108 48.3531 15.052 48.1211 14.94C47.8971 14.828 47.7171 14.688 47.5811 14.52C47.4531 14.344 47.3611 14.16 47.3051 13.968C47.2571 13.768 47.2331 13.584 47.2331 13.416C47.2331 13.136 47.2931 12.888 47.4131 12.672C47.5331 12.456 47.6971 12.276 47.9051 12.132C48.1211 11.98 48.3691 11.864 48.6491 11.784C48.9291 11.704 49.2331 11.656 49.5611 11.64L50.9891 11.544V11.22C50.9891 10.788 50.9051 10.484 50.7371 10.308C50.5771 10.124 50.2651 10.032 49.8011 10.032C49.5131 10.032 49.2051 10.06 48.8771 10.116C48.5571 10.172 48.2531 10.248 47.9651 10.344C47.9251 10.208 47.8851 10.068 47.8451 9.924C47.8051 9.78 47.7651 9.64 47.7251 9.504C48.0611 9.352 48.4451 9.236 48.8771 9.156C49.3091 9.068 49.7211 9.024 50.1131 9.024C50.4411 9.024 50.7371 9.06 51.0011 9.132C51.2651 9.196 51.4891 9.308 51.6731 9.468C51.8571 9.62 51.9971 9.824 52.0931 10.08C52.1971 10.336 52.2491 10.648 52.2491 11.016V14.088ZM49.6331 12.372C49.2811 12.396 49.0211 12.488 48.8531 12.648C48.6931 12.8 48.6131 13.008 48.6131 13.272C48.6131 13.576 48.6851 13.808 48.8291 13.968C48.9811 14.12 49.2251 14.196 49.5611 14.196C49.7851 14.196 50.0211 14.14 50.2691 14.028C50.5171 13.908 50.7571 13.744 50.9891 13.536V12.276L49.6331 12.372ZM57.4782 15V12.3H56.7342C56.4702 12.3 56.2262 12.356 56.0022 12.468C55.7862 12.58 55.6182 12.812 55.4982 13.164V13.152C55.4102 13.464 55.3182 13.776 55.2222 14.088C55.1262 14.392 55.0302 14.696 54.9342 15H53.6622C53.7742 14.656 53.8782 14.312 53.9742 13.968C54.0782 13.616 54.1822 13.264 54.2862 12.912C54.3742 12.656 54.4902 12.44 54.6342 12.264C54.7862 12.088 55.0142 11.952 55.3182 11.856V11.844C55.1182 11.756 54.9422 11.62 54.7902 11.436C54.6462 11.244 54.5382 11.02 54.4662 10.764C54.3942 10.492 54.3182 10.22 54.2382 9.948C54.1662 9.676 54.0902 9.408 54.0102 9.144H55.2342L55.6662 10.608C55.7222 10.784 55.7902 10.928 55.8702 11.04C55.9502 11.144 56.0382 11.228 56.1342 11.292C56.2382 11.348 56.3422 11.388 56.4462 11.412C56.5582 11.428 56.6662 11.436 56.7702 11.436H57.4782V9.132H58.7622V11.436H59.4822C59.5942 11.436 59.7022 11.424 59.8062 11.4C59.9182 11.376 60.0222 11.336 60.1182 11.28C60.2142 11.216 60.3022 11.132 60.3822 11.028C60.4622 10.916 60.5262 10.776 60.5742 10.608L61.0182 9.144H62.2302L61.7862 10.764C61.7062 11.02 61.5942 11.244 61.4502 11.436C61.3142 11.62 61.1422 11.756 60.9342 11.844V11.856C61.2382 11.952 61.4622 12.088 61.6062 12.264C61.7582 12.44 61.8742 12.656 61.9542 12.912C62.0662 13.264 62.1702 13.616 62.2662 13.968C62.3702 14.312 62.4782 14.656 62.5902 15H61.3182L60.7422 13.152V13.164C60.6782 12.98 60.6022 12.832 60.5142 12.72C60.4342 12.608 60.3382 12.52 60.2262 12.456C60.1222 12.392 60.0102 12.352 59.8902 12.336C59.7702 12.312 59.6462 12.3 59.5182 12.3H58.7622V15H57.4782ZM67.4275 15V10.824H67.3795L66.6355 12.036C66.5235 12.204 66.3755 12.436 66.1915 12.732C66.0155 13.02 65.8315 13.316 65.6395 13.62C65.4475 13.916 65.2675 14.192 65.0995 14.448C64.9395 14.704 64.8195 14.888 64.7395 15H63.5035V9.132H64.7995V13.26H64.8595C64.9555 13.1 65.0475 12.944 65.1355 12.792C65.2315 12.632 65.3315 12.472 65.4355 12.312C65.6115 12.04 65.7955 11.76 65.9875 11.472C66.1795 11.176 66.3635 10.888 66.5395 10.608C66.7235 10.32 66.8955 10.052 67.0555 9.804C67.2155 9.548 67.3555 9.324 67.4755 9.132H68.7355V15H67.4275Z" fill="white"/>
</svg>
