<svg width="104" height="24" viewBox="0 0 104 24" fill="none" xmlns="http://www.w3.org/2000/svg">
<rect width="104" height="24" rx="5" fill="#141515"/>
<path d="M35.4644 10.216C35.4644 10.488 35.4204 10.772 35.3324 11.068C35.2444 11.364 35.1004 11.636 34.9004 11.884C34.7084 12.124 34.4484 12.324 34.1204 12.484C33.7924 12.644 33.3884 12.724 32.9084 12.724H31.2644L31.2764 16H29.8964V7.768H32.7884C33.6284 7.768 34.2844 7.98 34.7564 8.404C35.2284 8.828 35.4644 9.432 35.4644 10.216ZM31.2644 8.752V11.752H32.6804C32.8564 11.752 33.0284 11.728 33.1964 11.68C33.3644 11.632 33.5124 11.552 33.6404 11.44C33.7764 11.32 33.8844 11.164 33.9644 10.972C34.0444 10.78 34.0844 10.54 34.0844 10.252C34.0844 9.732 33.9444 9.352 33.6644 9.112C33.3844 8.872 33.0404 8.752 32.6324 8.752H31.2644ZM40.8545 15.088H41.6345L41.7065 15.832C41.5385 15.92 41.3425 15.984 41.1185 16.024C40.9025 16.072 40.6945 16.096 40.4945 16.096C40.2465 16.096 40.0465 16.052 39.8945 15.964C39.7505 15.876 39.6705 15.68 39.6545 15.376C39.6545 15.376 39.6465 15.368 39.6305 15.352C39.4145 15.536 39.2025 15.68 38.9945 15.784C38.7945 15.888 38.6025 15.964 38.4185 16.012C38.2425 16.06 38.0825 16.088 37.9385 16.096C37.8025 16.104 37.6905 16.108 37.6025 16.108C37.2505 16.108 36.9585 16.052 36.7265 15.94C36.5025 15.828 36.3225 15.688 36.1865 15.52C36.0585 15.344 35.9665 15.16 35.9105 14.968C35.8625 14.768 35.8385 14.584 35.8385 14.416C35.8385 14.136 35.8985 13.888 36.0185 13.672C36.1385 13.456 36.3025 13.276 36.5105 13.132C36.7265 12.98 36.9745 12.864 37.2545 12.784C37.5345 12.704 37.8385 12.656 38.1665 12.64L39.5945 12.544V12.22C39.5945 11.788 39.5105 11.484 39.3425 11.308C39.1825 11.124 38.8705 11.032 38.4065 11.032C38.1185 11.032 37.8105 11.06 37.4825 11.116C37.1625 11.172 36.8585 11.248 36.5705 11.344C36.5305 11.208 36.4905 11.068 36.4505 10.924C36.4105 10.78 36.3705 10.64 36.3305 10.504C36.6665 10.352 37.0505 10.236 37.4825 10.156C37.9145 10.068 38.3265 10.024 38.7185 10.024C39.0465 10.024 39.3425 10.06 39.6065 10.132C39.8705 10.196 40.0945 10.308 40.2785 10.468C40.4625 10.62 40.6025 10.824 40.6985 11.08C40.8025 11.336 40.8545 11.648 40.8545 12.016V15.088ZM38.2385 13.372C37.8865 13.396 37.6265 13.488 37.4585 13.648C37.2985 13.8 37.2185 14.008 37.2185 14.272C37.2185 14.576 37.2905 14.808 37.4345 14.968C37.5865 15.12 37.8305 15.196 38.1665 15.196C38.3905 15.196 38.6265 15.14 38.8745 15.028C39.1225 14.908 39.3625 14.744 39.5945 14.536V13.276L38.2385 13.372ZM43.8756 13.048C43.8756 13.352 43.8996 13.628 43.9476 13.876C44.0036 14.124 44.0916 14.336 44.2116 14.512C44.3316 14.688 44.4916 14.828 44.6916 14.932C44.8916 15.028 45.1436 15.076 45.4476 15.076C45.7436 15.076 46.0196 15.048 46.2756 14.992C46.5396 14.928 46.8116 14.84 47.0916 14.728L47.3796 15.604C47.1076 15.748 46.7836 15.864 46.4076 15.952C46.0396 16.04 45.6556 16.084 45.2556 16.084C44.7356 16.084 44.2996 16.008 43.9476 15.856C43.6036 15.704 43.3276 15.496 43.1196 15.232C42.9116 14.968 42.7636 14.656 42.6756 14.296C42.5876 13.936 42.5436 13.548 42.5436 13.132C42.5436 12.804 42.5796 12.456 42.6516 12.088C42.7316 11.72 42.8716 11.384 43.0716 11.08C43.2796 10.768 43.5636 10.512 43.9236 10.312C44.2836 10.104 44.7516 10 45.3276 10C45.5836 10 45.8596 10.02 46.1556 10.06C46.4516 10.092 46.7596 10.168 47.0796 10.288L46.8396 11.224C46.5676 11.136 46.3196 11.084 46.0956 11.068C45.8796 11.044 45.6796 11.032 45.4956 11.032C44.9676 11.032 44.5636 11.212 44.2836 11.572C44.0116 11.932 43.8756 12.424 43.8756 13.048ZM51.7926 16C51.5606 15.616 51.3366 15.228 51.1206 14.836C50.9126 14.444 50.6886 14.06 50.4486 13.684C50.2166 14.068 49.9886 14.456 49.7646 14.848C49.5486 15.24 49.3246 15.624 49.0926 16H47.6886C48.0246 15.488 48.3566 14.98 48.6846 14.476C49.0126 13.964 49.3446 13.452 49.6806 12.94C49.3766 12.476 49.0726 12.012 48.7686 11.548C48.4646 11.076 48.1606 10.604 47.8566 10.132H49.3086C49.5086 10.468 49.7006 10.812 49.8846 11.164C50.0766 11.508 50.2766 11.848 50.4846 12.184C50.6926 11.848 50.8926 11.508 51.0846 11.164C51.2766 10.812 51.4766 10.468 51.6846 10.132H53.1006L51.2406 12.916L53.2326 16H51.7926ZM59.2556 13.072C59.2556 13.464 59.2076 13.844 59.1116 14.212C59.0156 14.572 58.8556 14.896 58.6316 15.184C58.4156 15.464 58.1276 15.688 57.7676 15.856C57.4076 16.024 56.9596 16.108 56.4236 16.108C55.9116 16.108 55.4836 16.028 55.1396 15.868C54.7956 15.708 54.5156 15.492 54.2996 15.22C54.0916 14.94 53.9396 14.616 53.8436 14.248C53.7556 13.88 53.7116 13.492 53.7116 13.084C53.7116 12.684 53.7636 12.3 53.8676 11.932C53.9716 11.556 54.1356 11.228 54.3596 10.948C54.5836 10.66 54.8716 10.432 55.2236 10.264C55.5836 10.088 56.0156 10 56.5196 10C57.0316 10 57.4636 10.088 57.8156 10.264C58.1676 10.432 58.4476 10.66 58.6556 10.948C58.8716 11.228 59.0236 11.556 59.1116 11.932C59.2076 12.3 59.2556 12.68 59.2556 13.072ZM57.8876 13.084C57.8876 12.836 57.8716 12.588 57.8396 12.34C57.8076 12.084 57.7396 11.856 57.6356 11.656C57.5396 11.448 57.3996 11.28 57.2156 11.152C57.0396 11.024 56.8076 10.96 56.5196 10.96C56.2316 10.96 55.9916 11.024 55.7996 11.152C55.6156 11.272 55.4676 11.436 55.3556 11.644C55.2516 11.844 55.1756 12.072 55.1276 12.328C55.0876 12.576 55.0676 12.828 55.0676 13.084C55.0676 13.364 55.0836 13.628 55.1156 13.876C55.1556 14.124 55.2276 14.344 55.3316 14.536C55.4356 14.72 55.5836 14.868 55.7756 14.98C55.9676 15.092 56.2156 15.148 56.5196 15.148C56.8076 15.148 57.0396 15.088 57.2156 14.968C57.3916 14.848 57.5276 14.692 57.6236 14.5C57.7276 14.308 57.7956 14.088 57.8276 13.84C57.8676 13.592 57.8876 13.34 57.8876 13.084ZM65.6041 15.076L66.2161 15.088V17.704H65.2321V16H60.8521V17.692H59.8441V15.088L60.3841 15.076C60.5761 14.9 60.7281 14.696 60.8401 14.464C60.9601 14.232 61.0521 13.964 61.1161 13.66C61.1881 13.348 61.2401 13 61.2721 12.616C61.3121 12.224 61.3481 11.78 61.3801 11.284L61.4521 10.12H65.6161L65.6041 15.076ZM62.5561 11.056L62.5321 11.548C62.5081 12.012 62.4801 12.428 62.4481 12.796C62.4241 13.156 62.3841 13.48 62.3281 13.768C62.2721 14.056 62.2001 14.308 62.1121 14.524C62.0321 14.732 61.9241 14.916 61.7881 15.076H64.3441V11.056H62.5561ZM73.0453 16V10.132H74.3533V16H73.0453ZM68.5573 13.012V15.1H70.1413C70.4533 15.1 70.7013 15.008 70.8853 14.824C71.0693 14.632 71.1613 14.384 71.1613 14.08C71.1613 13.744 71.0573 13.484 70.8493 13.3C70.6413 13.108 70.3773 13.012 70.0573 13.012H68.5573ZM68.5573 10.132V12.172H70.3573C70.6853 12.172 70.9773 12.224 71.2333 12.328C71.4973 12.424 71.7173 12.56 71.8933 12.736C72.0773 12.912 72.2133 13.116 72.3013 13.348C72.3973 13.572 72.4453 13.816 72.4453 14.08C72.4453 14.368 72.3933 14.632 72.2893 14.872C72.1933 15.104 72.0573 15.304 71.8813 15.472C71.7053 15.64 71.4973 15.772 71.2573 15.868C71.0173 15.956 70.7573 16 70.4773 16H67.2613V10.132H68.5573Z" fill="white"/>
</svg>
