<svg width="597" height="597" viewBox="0 0 597 597" fill="none" xmlns="http://www.w3.org/2000/svg">
<circle cx="295.65" cy="298.589" r="146.223" stroke="#DDDDDD"/>
<circle cx="295.65" cy="298.589" r="223.375" stroke="#DDDDDD"/>
<circle cx="441.138" cy="276.545" r="5.8783" fill="#E01E2E"/>
<circle cx="441.138" cy="276.545" r="7.58266" stroke="#E01E2E"/>
<rect x="458" y="265" width="106" height="24" rx="5" fill="#141515"/>
<path d="M480.436 281V277.196H476.884C476.884 277.828 476.884 278.464 476.884 279.104C476.892 279.736 476.896 280.368 476.896 281H475.516V272.78H476.896C476.896 273.356 476.892 273.92 476.884 274.472C476.884 275.024 476.884 275.588 476.884 276.164H480.436V272.78H481.816V281H480.436ZM488.208 280.088H488.988L489.06 280.832C488.892 280.92 488.696 280.984 488.472 281.024C488.256 281.072 488.048 281.096 487.848 281.096C487.6 281.096 487.4 281.052 487.248 280.964C487.104 280.876 487.024 280.68 487.008 280.376C487.008 280.376 487 280.368 486.984 280.352C486.768 280.536 486.556 280.68 486.348 280.784C486.148 280.888 485.956 280.964 485.772 281.012C485.596 281.06 485.436 281.088 485.292 281.096C485.156 281.104 485.044 281.108 484.956 281.108C484.604 281.108 484.312 281.052 484.08 280.94C483.856 280.828 483.676 280.688 483.54 280.52C483.412 280.344 483.32 280.16 483.264 279.968C483.216 279.768 483.192 279.584 483.192 279.416C483.192 279.136 483.252 278.888 483.372 278.672C483.492 278.456 483.656 278.276 483.864 278.132C484.08 277.98 484.328 277.864 484.608 277.784C484.888 277.704 485.192 277.656 485.52 277.64L486.948 277.544V277.22C486.948 276.788 486.864 276.484 486.696 276.308C486.536 276.124 486.224 276.032 485.76 276.032C485.472 276.032 485.164 276.06 484.836 276.116C484.516 276.172 484.212 276.248 483.924 276.344C483.884 276.208 483.844 276.068 483.804 275.924C483.764 275.78 483.724 275.64 483.684 275.504C484.02 275.352 484.404 275.236 484.836 275.156C485.268 275.068 485.68 275.024 486.072 275.024C486.4 275.024 486.696 275.06 486.96 275.132C487.224 275.196 487.448 275.308 487.632 275.468C487.816 275.62 487.956 275.824 488.052 276.08C488.156 276.336 488.208 276.648 488.208 277.016V280.088ZM485.592 278.372C485.24 278.396 484.98 278.488 484.812 278.648C484.652 278.8 484.572 279.008 484.572 279.272C484.572 279.576 484.644 279.808 484.788 279.968C484.94 280.12 485.184 280.196 485.52 280.196C485.744 280.196 485.98 280.14 486.228 280.028C486.476 279.908 486.716 279.744 486.948 279.536V278.276L485.592 278.372ZM495.309 280.076L495.921 280.088V282.704H494.937V281H490.557V282.692H489.549V280.088L490.089 280.076C490.281 279.9 490.433 279.696 490.545 279.464C490.665 279.232 490.757 278.964 490.821 278.66C490.893 278.348 490.945 278 490.977 277.616C491.017 277.224 491.053 276.78 491.085 276.284L491.157 275.12H495.321L495.309 280.076ZM492.261 276.056L492.237 276.548C492.213 277.012 492.185 277.428 492.153 277.796C492.129 278.156 492.089 278.48 492.033 278.768C491.977 279.056 491.905 279.308 491.817 279.524C491.737 279.732 491.629 279.916 491.493 280.076H494.049V276.056H492.261ZM499.45 272.864C499.578 272.808 499.734 272.744 499.918 272.672C500.102 272.6 500.29 272.528 500.482 272.456C500.674 272.376 500.858 272.3 501.034 272.228C501.21 272.156 501.358 272.092 501.478 272.036C501.542 272.172 501.606 272.304 501.67 272.432C501.734 272.56 501.798 272.692 501.862 272.828C501.598 272.964 501.346 273.088 501.106 273.2C500.874 273.304 500.69 273.384 500.554 273.44C500.17 273.6 499.826 273.756 499.522 273.908C499.226 274.052 498.97 274.224 498.754 274.424C498.538 274.616 498.362 274.848 498.226 275.12C498.09 275.392 497.99 275.736 497.926 276.152C497.934 276.152 497.942 276.156 497.95 276.164C498.158 275.876 498.426 275.648 498.754 275.48C499.082 275.304 499.45 275.216 499.858 275.216C500.298 275.216 500.67 275.292 500.974 275.444C501.286 275.588 501.538 275.792 501.73 276.056C501.922 276.312 502.058 276.616 502.138 276.968C502.226 277.32 502.27 277.704 502.27 278.12C502.27 278.488 502.222 278.852 502.126 279.212C502.03 279.564 501.87 279.88 501.646 280.16C501.43 280.44 501.142 280.668 500.782 280.844C500.422 281.012 499.978 281.096 499.45 281.096C498.922 281.096 498.486 281.012 498.142 280.844C497.798 280.668 497.522 280.44 497.314 280.16C497.114 279.88 496.974 279.568 496.894 279.224C496.814 278.872 496.774 278.516 496.774 278.156C496.774 277.74 496.778 277.384 496.786 277.088C496.794 276.792 496.806 276.544 496.822 276.344C496.838 276.144 496.854 275.984 496.87 275.864C496.886 275.736 496.906 275.628 496.93 275.54C497.074 274.916 497.358 274.384 497.782 273.944C498.214 273.496 498.77 273.136 499.45 272.864ZM499.606 276.128C499.334 276.128 499.102 276.196 498.91 276.332C498.718 276.468 498.562 276.64 498.442 276.848C498.322 277.048 498.234 277.276 498.178 277.532C498.13 277.78 498.106 278.016 498.106 278.24C498.106 278.464 498.122 278.692 498.154 278.924C498.186 279.148 498.254 279.352 498.358 279.536C498.462 279.712 498.606 279.86 498.79 279.98C498.974 280.092 499.222 280.148 499.534 280.148C499.814 280.148 500.042 280.092 500.218 279.98C500.402 279.868 500.546 279.72 500.65 279.536C500.754 279.344 500.826 279.132 500.866 278.9C500.906 278.66 500.926 278.416 500.926 278.168C500.926 277.912 500.906 277.664 500.866 277.424C500.834 277.176 500.77 276.956 500.674 276.764C500.578 276.572 500.442 276.42 500.266 276.308C500.098 276.188 499.878 276.128 499.606 276.128ZM508.2 280.088H508.98L509.052 280.832C508.884 280.92 508.688 280.984 508.464 281.024C508.248 281.072 508.04 281.096 507.84 281.096C507.592 281.096 507.392 281.052 507.24 280.964C507.096 280.876 507.016 280.68 507 280.376C507 280.376 506.992 280.368 506.976 280.352C506.76 280.536 506.548 280.68 506.34 280.784C506.14 280.888 505.948 280.964 505.764 281.012C505.588 281.06 505.428 281.088 505.284 281.096C505.148 281.104 505.036 281.108 504.948 281.108C504.596 281.108 504.304 281.052 504.072 280.94C503.848 280.828 503.668 280.688 503.532 280.52C503.404 280.344 503.312 280.16 503.256 279.968C503.208 279.768 503.184 279.584 503.184 279.416C503.184 279.136 503.244 278.888 503.364 278.672C503.484 278.456 503.648 278.276 503.856 278.132C504.072 277.98 504.32 277.864 504.6 277.784C504.88 277.704 505.184 277.656 505.512 277.64L506.94 277.544V277.22C506.94 276.788 506.856 276.484 506.688 276.308C506.528 276.124 506.216 276.032 505.752 276.032C505.464 276.032 505.156 276.06 504.828 276.116C504.508 276.172 504.204 276.248 503.916 276.344C503.876 276.208 503.836 276.068 503.796 275.924C503.756 275.78 503.716 275.64 503.676 275.504C504.012 275.352 504.396 275.236 504.828 275.156C505.26 275.068 505.672 275.024 506.064 275.024C506.392 275.024 506.688 275.06 506.952 275.132C507.216 275.196 507.44 275.308 507.624 275.468C507.808 275.62 507.948 275.824 508.044 276.08C508.148 276.336 508.2 276.648 508.2 277.016V280.088ZM505.584 278.372C505.232 278.396 504.972 278.488 504.804 278.648C504.644 278.8 504.564 279.008 504.564 279.272C504.564 279.576 504.636 279.808 504.78 279.968C504.932 280.12 505.176 280.196 505.512 280.196C505.736 280.196 505.972 280.14 506.22 280.028C506.468 279.908 506.708 279.744 506.94 279.536V278.276L505.584 278.372ZM513.057 275.132C513.681 275.132 514.157 275.268 514.485 275.54C514.813 275.812 514.977 276.18 514.977 276.644C514.977 276.852 514.925 277.072 514.821 277.304C514.725 277.528 514.533 277.72 514.245 277.88V277.892C514.437 277.964 514.593 278.06 514.713 278.18C514.833 278.292 514.929 278.412 515.001 278.54C515.073 278.668 515.121 278.804 515.145 278.948C515.169 279.084 515.181 279.212 515.181 279.332C515.181 279.588 515.129 279.82 515.025 280.028C514.929 280.228 514.793 280.4 514.617 280.544C514.441 280.688 514.237 280.8 514.005 280.88C513.773 280.96 513.525 281 513.261 281H510.009V275.132H513.057ZM511.305 278.336V280.112H512.781C513.173 280.112 513.449 280.02 513.609 279.836C513.777 279.652 513.861 279.444 513.861 279.212C513.861 278.98 513.773 278.776 513.597 278.6C513.421 278.424 513.149 278.336 512.781 278.336H511.305ZM511.305 276.02V277.592H512.709C513.013 277.592 513.249 277.52 513.417 277.376C513.593 277.224 513.681 277.032 513.681 276.8C513.681 276.568 513.601 276.38 513.441 276.236C513.281 276.092 513.017 276.02 512.649 276.02H511.305ZM516.302 281V275.132H517.574V277.436H518.534C518.79 277.436 519.014 277.38 519.206 277.268C519.398 277.148 519.538 276.928 519.626 276.608L520.07 275.144H521.282L520.826 276.764C520.754 277.02 520.646 277.244 520.502 277.436C520.366 277.62 520.194 277.756 519.986 277.844V277.856C520.282 277.952 520.506 278.088 520.658 278.264C520.81 278.44 520.926 278.656 521.006 278.912C521.118 279.264 521.222 279.616 521.318 279.968C521.422 280.312 521.526 280.656 521.63 281H520.358C520.27 280.696 520.178 280.392 520.082 280.088C519.986 279.776 519.89 279.464 519.794 279.152V279.164C519.73 278.98 519.654 278.832 519.566 278.72C519.478 278.608 519.378 278.52 519.266 278.456C519.162 278.392 519.05 278.352 518.93 278.336C518.81 278.312 518.69 278.3 518.57 278.3H517.574V281H516.302ZM527.384 280.088H528.164L528.236 280.832C528.068 280.92 527.872 280.984 527.648 281.024C527.432 281.072 527.224 281.096 527.024 281.096C526.776 281.096 526.576 281.052 526.424 280.964C526.28 280.876 526.2 280.68 526.184 280.376C526.184 280.376 526.176 280.368 526.16 280.352C525.944 280.536 525.732 280.68 525.524 280.784C525.324 280.888 525.132 280.964 524.948 281.012C524.772 281.06 524.612 281.088 524.468 281.096C524.332 281.104 524.22 281.108 524.132 281.108C523.78 281.108 523.488 281.052 523.256 280.94C523.032 280.828 522.852 280.688 522.716 280.52C522.588 280.344 522.496 280.16 522.44 279.968C522.392 279.768 522.368 279.584 522.368 279.416C522.368 279.136 522.428 278.888 522.548 278.672C522.668 278.456 522.832 278.276 523.04 278.132C523.256 277.98 523.504 277.864 523.784 277.784C524.064 277.704 524.368 277.656 524.696 277.64L526.124 277.544V277.22C526.124 276.788 526.04 276.484 525.872 276.308C525.712 276.124 525.4 276.032 524.936 276.032C524.648 276.032 524.34 276.06 524.012 276.116C523.692 276.172 523.388 276.248 523.1 276.344C523.06 276.208 523.02 276.068 522.98 275.924C522.94 275.78 522.9 275.64 522.86 275.504C523.196 275.352 523.58 275.236 524.012 275.156C524.444 275.068 524.856 275.024 525.248 275.024C525.576 275.024 525.872 275.06 526.136 275.132C526.4 275.196 526.624 275.308 526.808 275.468C526.992 275.62 527.132 275.824 527.228 276.08C527.332 276.336 527.384 276.648 527.384 277.016V280.088ZM524.768 278.372C524.416 278.396 524.156 278.488 523.988 278.648C523.828 278.8 523.748 279.008 523.748 279.272C523.748 279.576 523.82 279.808 523.964 279.968C524.116 280.12 524.36 280.196 524.696 280.196C524.92 280.196 525.156 280.14 525.404 280.028C525.652 279.908 525.892 279.744 526.124 279.536V278.276L524.768 278.372ZM538.04 278.888V272.78H539.36V281H538.004C537.516 280.224 537.036 279.448 536.564 278.672C536.092 277.896 535.612 277.116 535.124 276.332L534.2 274.76C534.192 274.76 534.184 274.764 534.176 274.772C534.176 274.772 534.168 274.772 534.152 274.772V281H532.844V272.78H534.212C534.684 273.532 535.144 274.268 535.592 274.988C536.04 275.7 536.492 276.432 536.948 277.184C537.132 277.464 537.304 277.748 537.464 278.036C537.624 278.324 537.796 278.608 537.98 278.888H538.04ZM542.096 272.816C542.448 272.816 542.744 272.872 542.984 272.984C543.224 273.096 543.416 273.248 543.56 273.44C543.712 273.624 543.82 273.836 543.884 274.076C543.948 274.316 543.98 274.564 543.98 274.82C543.98 275.084 543.948 275.336 543.884 275.576C543.82 275.816 543.712 276.028 543.56 276.212C543.416 276.396 543.22 276.544 542.972 276.656C542.732 276.768 542.428 276.824 542.06 276.824C541.716 276.824 541.42 276.772 541.172 276.668C540.932 276.564 540.736 276.424 540.584 276.248C540.432 276.064 540.32 275.852 540.248 275.612C540.184 275.364 540.152 275.104 540.152 274.832C540.152 274.576 540.188 274.328 540.26 274.088C540.332 273.84 540.444 273.624 540.596 273.44C540.756 273.248 540.956 273.096 541.196 272.984C541.444 272.872 541.744 272.816 542.096 272.816ZM543.008 274.832C543.008 274.68 542.996 274.524 542.972 274.364C542.948 274.204 542.9 274.06 542.828 273.932C542.764 273.804 542.672 273.7 542.552 273.62C542.44 273.54 542.288 273.5 542.096 273.5C541.896 273.5 541.732 273.54 541.604 273.62C541.484 273.7 541.388 273.804 541.316 273.932C541.244 274.06 541.192 274.204 541.16 274.364C541.136 274.524 541.124 274.684 541.124 274.844C541.124 275.012 541.136 275.176 541.16 275.336C541.184 275.488 541.228 275.624 541.292 275.744C541.364 275.864 541.464 275.96 541.592 276.032C541.72 276.104 541.888 276.14 542.096 276.14C542.288 276.14 542.44 276.104 542.552 276.032C542.672 275.952 542.764 275.852 542.828 275.732C542.9 275.604 542.948 275.464 542.972 275.312C542.996 275.152 543.008 274.992 543.008 274.832ZM540.2 278.192V277.328H543.932V278.192H540.2ZM546.869 280.052H550.577V281H545.057V280.16C545.281 279.952 545.529 279.724 545.801 279.476C546.081 279.228 546.365 278.968 546.653 278.696C546.941 278.424 547.221 278.144 547.493 277.856C547.765 277.56 548.005 277.268 548.213 276.98C548.429 276.684 548.601 276.392 548.729 276.104C548.857 275.816 548.921 275.54 548.921 275.276C548.921 274.828 548.785 274.5 548.513 274.292C548.249 274.076 547.889 273.968 547.433 273.968C547.225 273.968 546.945 274.004 546.593 274.076C546.249 274.14 545.849 274.304 545.393 274.568L544.973 273.788C545.477 273.436 545.965 273.2 546.437 273.08C546.909 272.96 547.317 272.9 547.661 272.9C548.045 272.9 548.397 272.948 548.717 273.044C549.037 273.14 549.309 273.284 549.533 273.476C549.757 273.668 549.929 273.908 550.049 274.196C550.177 274.476 550.241 274.804 550.241 275.18C550.241 275.644 550.121 276.104 549.881 276.56C549.649 277.008 549.357 277.44 549.005 277.856C548.661 278.264 548.293 278.652 547.901 279.02C547.509 279.38 547.157 279.704 546.845 279.992L546.869 280.052Z" fill="white"/>
<circle cx="298.589" cy="298.589" r="297.589" stroke="#DDDDDD"/>
<circle cx="552.826" cy="143.549" r="5.8783" fill="#E01E2E"/>
<circle cx="552.826" cy="143.549" r="7.58266" stroke="#E01E2E"/>
<circle cx="512.412" cy="352.228" r="7.58266" stroke="#E01E2E"/>
<circle cx="512.412" cy="352.228" r="5.8783" fill="#E01E2E"/>
<circle cx="368.394" cy="86.9701" r="5.8783" fill="#E01E2E"/>
<circle cx="368.394" cy="86.9701" r="7.58266" stroke="#E01E2E"/>
<circle cx="155.305" cy="37.7394" r="5.8783" fill="#E01E2E"/>
<circle cx="155.305" cy="37.7394" r="7.58266" stroke="#E01E2E"/>
<circle cx="9.81745" cy="370.598" r="5.8783" fill="#E01E2E"/>
<circle cx="9.81745" cy="370.598" r="7.58266" stroke="#E01E2E"/>
</svg>
