<svg width="120" height="24" viewBox="0 0 120 24" fill="none" xmlns="http://www.w3.org/2000/svg">
<rect width="120" height="24" rx="5" fill="#141515"/>
<path d="M27.1836 16V12.196H23.6316C23.6316 12.828 23.6316 13.464 23.6316 14.104C23.6396 14.736 23.6436 15.368 23.6436 16H22.2636V7.78H23.6436C23.6436 8.356 23.6396 8.92 23.6316 9.472C23.6316 10.024 23.6316 10.588 23.6316 11.164H27.1836V7.78H28.5636V16H27.1836ZM34.9561 15.088H35.7361L35.8081 15.832C35.6401 15.92 35.4441 15.984 35.2201 16.024C35.0041 16.072 34.7961 16.096 34.5961 16.096C34.3481 16.096 34.1481 16.052 33.9961 15.964C33.8521 15.876 33.7721 15.68 33.7561 15.376C33.7561 15.376 33.7481 15.368 33.7321 15.352C33.5161 15.536 33.3041 15.68 33.0961 15.784C32.8961 15.888 32.7041 15.964 32.5201 16.012C32.3441 16.06 32.1841 16.088 32.0401 16.096C31.9041 16.104 31.7921 16.108 31.7041 16.108C31.3521 16.108 31.0601 16.052 30.8281 15.94C30.6041 15.828 30.4241 15.688 30.2881 15.52C30.1601 15.344 30.0681 15.16 30.0121 14.968C29.9641 14.768 29.9401 14.584 29.9401 14.416C29.9401 14.136 30.0001 13.888 30.1201 13.672C30.2401 13.456 30.4041 13.276 30.6121 13.132C30.8281 12.98 31.0761 12.864 31.3561 12.784C31.6361 12.704 31.9401 12.656 32.2681 12.64L33.6961 12.544V12.22C33.6961 11.788 33.6121 11.484 33.4441 11.308C33.2841 11.124 32.9721 11.032 32.5081 11.032C32.2201 11.032 31.9121 11.06 31.5841 11.116C31.2641 11.172 30.9601 11.248 30.6721 11.344C30.6321 11.208 30.5921 11.068 30.5521 10.924C30.5121 10.78 30.4721 10.64 30.4321 10.504C30.7681 10.352 31.1521 10.236 31.5841 10.156C32.0161 10.068 32.4281 10.024 32.8201 10.024C33.1481 10.024 33.4441 10.06 33.7081 10.132C33.9721 10.196 34.1961 10.308 34.3801 10.468C34.5641 10.62 34.7041 10.824 34.8001 11.08C34.9041 11.336 34.9561 11.648 34.9561 12.016V15.088ZM32.3401 13.372C31.9881 13.396 31.7281 13.488 31.5601 13.648C31.4001 13.8 31.3201 14.008 31.3201 14.272C31.3201 14.576 31.3921 14.808 31.5361 14.968C31.6881 15.12 31.9321 15.196 32.2681 15.196C32.4921 15.196 32.7281 15.14 32.9761 15.028C33.2241 14.908 33.4641 14.744 33.6961 14.536V13.276L32.3401 13.372ZM40.4012 16V11.056H38.7092L38.6732 11.704C38.6332 12.344 38.5892 12.928 38.5412 13.456C38.5012 13.984 38.4132 14.448 38.2772 14.848C38.1412 15.24 37.9372 15.564 37.6652 15.82C37.3932 16.076 37.0132 16.256 36.5252 16.36L36.1892 15.472C36.5012 15.352 36.7412 15.204 36.9092 15.028C37.0772 14.852 37.2012 14.62 37.2812 14.332C37.3692 14.044 37.4252 13.684 37.4492 13.252C37.4812 12.812 37.5132 12.276 37.5452 11.644L37.6172 10.12H41.7092V16H40.4012ZM48.447 13.072C48.447 13.464 48.399 13.844 48.303 14.212C48.207 14.572 48.047 14.896 47.823 15.184C47.607 15.464 47.319 15.688 46.959 15.856C46.599 16.024 46.151 16.108 45.615 16.108C45.103 16.108 44.675 16.028 44.331 15.868C43.987 15.708 43.707 15.492 43.491 15.22C43.283 14.94 43.131 14.616 43.035 14.248C42.947 13.88 42.903 13.492 42.903 13.084C42.903 12.684 42.955 12.3 43.059 11.932C43.163 11.556 43.327 11.228 43.551 10.948C43.775 10.66 44.063 10.432 44.415 10.264C44.775 10.088 45.207 10 45.711 10C46.223 10 46.655 10.088 47.007 10.264C47.359 10.432 47.639 10.66 47.847 10.948C48.063 11.228 48.215 11.556 48.303 11.932C48.399 12.3 48.447 12.68 48.447 13.072ZM47.079 13.084C47.079 12.836 47.063 12.588 47.031 12.34C46.999 12.084 46.931 11.856 46.827 11.656C46.731 11.448 46.591 11.28 46.407 11.152C46.231 11.024 45.999 10.96 45.711 10.96C45.423 10.96 45.183 11.024 44.991 11.152C44.807 11.272 44.659 11.436 44.547 11.644C44.443 11.844 44.367 12.072 44.319 12.328C44.279 12.576 44.259 12.828 44.259 13.084C44.259 13.364 44.275 13.628 44.307 13.876C44.347 14.124 44.419 14.344 44.523 14.536C44.627 14.72 44.775 14.868 44.967 14.98C45.159 15.092 45.407 15.148 45.711 15.148C45.999 15.148 46.231 15.088 46.407 14.968C46.583 14.848 46.719 14.692 46.815 14.5C46.919 14.308 46.987 14.088 47.019 13.84C47.059 13.592 47.079 13.34 47.079 13.084ZM49.6207 16V10.12H54.0007V11.068H50.9167V16H49.6207ZM61.969 16V13.348H59.413V16H58.105V10.132H59.425V12.412H61.969V10.132H63.277V16H61.969ZM69.3975 15.088H70.1775L70.2495 15.832C70.0815 15.92 69.8855 15.984 69.6615 16.024C69.4455 16.072 69.2375 16.096 69.0375 16.096C68.7895 16.096 68.5895 16.052 68.4375 15.964C68.2935 15.876 68.2135 15.68 68.1975 15.376C68.1975 15.376 68.1895 15.368 68.1735 15.352C67.9575 15.536 67.7455 15.68 67.5375 15.784C67.3375 15.888 67.1455 15.964 66.9615 16.012C66.7855 16.06 66.6255 16.088 66.4815 16.096C66.3455 16.104 66.2335 16.108 66.1455 16.108C65.7935 16.108 65.5015 16.052 65.2695 15.94C65.0455 15.828 64.8655 15.688 64.7295 15.52C64.6015 15.344 64.5095 15.16 64.4535 14.968C64.4055 14.768 64.3815 14.584 64.3815 14.416C64.3815 14.136 64.4415 13.888 64.5615 13.672C64.6815 13.456 64.8455 13.276 65.0535 13.132C65.2695 12.98 65.5175 12.864 65.7975 12.784C66.0775 12.704 66.3815 12.656 66.7095 12.64L68.1375 12.544V12.22C68.1375 11.788 68.0535 11.484 67.8855 11.308C67.7255 11.124 67.4135 11.032 66.9495 11.032C66.6615 11.032 66.3535 11.06 66.0255 11.116C65.7055 11.172 65.4015 11.248 65.1135 11.344C65.0735 11.208 65.0335 11.068 64.9935 10.924C64.9535 10.78 64.9135 10.64 64.8735 10.504C65.2095 10.352 65.5935 10.236 66.0255 10.156C66.4575 10.068 66.8695 10.024 67.2615 10.024C67.5895 10.024 67.8855 10.06 68.1495 10.132C68.4135 10.196 68.6375 10.308 68.8215 10.468C69.0055 10.62 69.1455 10.824 69.2415 11.08C69.3455 11.336 69.3975 11.648 69.3975 12.016V15.088ZM66.7815 13.372C66.4295 13.396 66.1695 13.488 66.0015 13.648C65.8415 13.8 65.7615 14.008 65.7615 14.272C65.7615 14.576 65.8335 14.808 65.9775 14.968C66.1295 15.12 66.3735 15.196 66.7095 15.196C66.9335 15.196 67.1695 15.14 67.4175 15.028C67.6655 14.908 67.9055 14.744 68.1375 14.536V13.276L66.7815 13.372ZM77.6413 10.132C78.2653 10.132 78.7413 10.268 79.0693 10.54C79.3973 10.812 79.5613 11.18 79.5613 11.644C79.5613 11.852 79.5093 12.072 79.4053 12.304C79.3093 12.528 79.1173 12.72 78.8293 12.88V12.892C79.0213 12.964 79.1773 13.06 79.2973 13.18C79.4173 13.292 79.5133 13.412 79.5853 13.54C79.6573 13.668 79.7053 13.804 79.7293 13.948C79.7533 14.084 79.7653 14.212 79.7653 14.332C79.7653 14.588 79.7133 14.82 79.6093 15.028C79.5133 15.228 79.3773 15.4 79.2013 15.544C79.0253 15.688 78.8213 15.8 78.5893 15.88C78.3573 15.96 78.1093 16 77.8453 16H74.5933V10.132H77.6413ZM75.8893 13.336V15.112H77.3653C77.7573 15.112 78.0333 15.02 78.1933 14.836C78.3613 14.652 78.4453 14.444 78.4453 14.212C78.4453 13.98 78.3573 13.776 78.1813 13.6C78.0053 13.424 77.7333 13.336 77.3653 13.336H75.8893ZM75.8893 11.02V12.592H77.2933C77.5973 12.592 77.8333 12.52 78.0013 12.376C78.1773 12.224 78.2653 12.032 78.2653 11.8C78.2653 11.568 78.1853 11.38 78.0253 11.236C77.8653 11.092 77.6013 11.02 77.2333 11.02H75.8893ZM83.9343 10.132C84.5583 10.132 85.0343 10.268 85.3623 10.54C85.6903 10.812 85.8543 11.18 85.8543 11.644C85.8543 11.852 85.8023 12.072 85.6983 12.304C85.6023 12.528 85.4103 12.72 85.1223 12.88V12.892C85.3143 12.964 85.4703 13.06 85.5903 13.18C85.7103 13.292 85.8063 13.412 85.8783 13.54C85.9503 13.668 85.9983 13.804 86.0223 13.948C86.0463 14.084 86.0583 14.212 86.0583 14.332C86.0583 14.588 86.0063 14.82 85.9023 15.028C85.8063 15.228 85.6703 15.4 85.4943 15.544C85.3183 15.688 85.1143 15.8 84.8823 15.88C84.6503 15.96 84.4023 16 84.1383 16H80.8863V10.132H83.9343ZM82.1823 13.336V15.112H83.6583C84.0503 15.112 84.3263 15.02 84.4863 14.836C84.6543 14.652 84.7383 14.444 84.7383 14.212C84.7383 13.98 84.6503 13.776 84.4743 13.6C84.2983 13.424 84.0263 13.336 83.6583 13.336H82.1823ZM82.1823 11.02V12.592H83.5863C83.8903 12.592 84.1263 12.52 84.2943 12.376C84.4703 12.224 84.5583 12.032 84.5583 11.8C84.5583 11.568 84.4783 11.38 84.3183 11.236C84.1583 11.092 83.8943 11.02 83.5263 11.02H82.1823ZM92.6033 13.072C92.6033 13.464 92.5553 13.844 92.4593 14.212C92.3633 14.572 92.2033 14.896 91.9793 15.184C91.7633 15.464 91.4753 15.688 91.1153 15.856C90.7553 16.024 90.3073 16.108 89.7713 16.108C89.2593 16.108 88.8313 16.028 88.4873 15.868C88.1433 15.708 87.8633 15.492 87.6473 15.22C87.4393 14.94 87.2873 14.616 87.1913 14.248C87.1033 13.88 87.0593 13.492 87.0593 13.084C87.0593 12.684 87.1113 12.3 87.2153 11.932C87.3193 11.556 87.4833 11.228 87.7073 10.948C87.9313 10.66 88.2193 10.432 88.5713 10.264C88.9313 10.088 89.3633 10 89.8673 10C90.3793 10 90.8113 10.088 91.1633 10.264C91.5153 10.432 91.7953 10.66 92.0033 10.948C92.2193 11.228 92.3713 11.556 92.4593 11.932C92.5553 12.3 92.6033 12.68 92.6033 13.072ZM91.2353 13.084C91.2353 12.836 91.2193 12.588 91.1873 12.34C91.1553 12.084 91.0873 11.856 90.9833 11.656C90.8873 11.448 90.7473 11.28 90.5633 11.152C90.3873 11.024 90.1553 10.96 89.8673 10.96C89.5793 10.96 89.3393 11.024 89.1473 11.152C88.9633 11.272 88.8153 11.436 88.7033 11.644C88.5993 11.844 88.5233 12.072 88.4753 12.328C88.4353 12.576 88.4153 12.828 88.4153 13.084C88.4153 13.364 88.4313 13.628 88.4633 13.876C88.5033 14.124 88.5753 14.344 88.6793 14.536C88.7833 14.72 88.9313 14.868 89.1233 14.98C89.3153 15.092 89.5633 15.148 89.8673 15.148C90.1553 15.148 90.3873 15.088 90.5633 14.968C90.7393 14.848 90.8753 14.692 90.9713 14.5C91.0753 14.308 91.1433 14.088 91.1753 13.84C91.2153 13.592 91.2353 13.34 91.2353 13.084ZM97.0077 12.808C97.3517 12.904 97.6237 13.08 97.8237 13.336C98.0237 13.584 98.1237 13.876 98.1237 14.212C98.1237 14.516 98.0597 14.788 97.9317 15.028C97.8037 15.26 97.6197 15.456 97.3797 15.616C97.1477 15.776 96.8677 15.9 96.5397 15.988C96.2197 16.068 95.8637 16.108 95.4717 16.108C95.0397 16.108 94.6277 16.068 94.2357 15.988C93.8517 15.9 93.5317 15.8 93.2757 15.688L93.5397 14.86C93.8597 14.964 94.1477 15.044 94.4037 15.1C94.6677 15.148 94.9357 15.172 95.2077 15.172C95.7037 15.172 96.0877 15.092 96.3597 14.932C96.6397 14.764 96.7797 14.496 96.7797 14.128C96.7797 13.952 96.7397 13.808 96.6597 13.696C96.5877 13.584 96.4917 13.496 96.3717 13.432C96.2597 13.36 96.1357 13.312 95.9997 13.288C95.8637 13.264 95.7317 13.252 95.6037 13.252H94.7157V12.472H95.4717C95.5997 12.472 95.7317 12.46 95.8677 12.436C96.0037 12.412 96.1277 12.372 96.2397 12.316C96.3517 12.252 96.4437 12.172 96.5157 12.076C96.5877 11.972 96.6237 11.836 96.6237 11.668C96.6237 11.436 96.5357 11.252 96.3597 11.116C96.1837 10.972 95.9037 10.9 95.5197 10.9C95.3117 10.9 95.0757 10.916 94.8117 10.948C94.5557 10.972 94.2077 11.06 93.7677 11.212L93.5397 10.42C93.8437 10.284 94.1917 10.176 94.5837 10.096C94.9837 10.016 95.3717 9.976 95.7477 9.976C96.4757 9.976 97.0237 10.116 97.3917 10.396C97.7677 10.668 97.9557 11.036 97.9557 11.5C97.9557 11.804 97.8637 12.072 97.6797 12.304C97.4957 12.528 97.2717 12.684 97.0077 12.772V12.808Z" fill="white"/>
</svg>
