<svg width="93" height="24" viewBox="0 0 93 24" fill="none" xmlns="http://www.w3.org/2000/svg">
<rect width="93" height="24" rx="5" fill="#141515"/>
<path d="M28.0988 16V8.812H24.5468L24.5588 16H23.1788V7.768H29.4788V16H28.0988ZM32.4136 10.696C32.6776 10.488 32.9616 10.328 33.2656 10.216C33.5776 10.104 33.8816 10.048 34.1776 10.048C34.6096 10.048 34.9696 10.128 35.2576 10.288C35.5536 10.44 35.7856 10.652 35.9536 10.924C36.1296 11.196 36.2536 11.512 36.3256 11.872C36.3976 12.224 36.4336 12.604 36.4336 13.012C36.4336 13.444 36.3896 13.848 36.3016 14.224C36.2136 14.6 36.0736 14.928 35.8816 15.208C35.6896 15.488 35.4376 15.708 35.1256 15.868C34.8216 16.028 34.4496 16.108 34.0096 16.108C33.8976 16.108 33.7736 16.1 33.6376 16.084C33.5016 16.076 33.3616 16.056 33.2176 16.024C33.0736 16 32.9296 15.964 32.7856 15.916C32.6416 15.868 32.5096 15.804 32.3896 15.724V18.496H31.0816V10.12H32.3296L32.3536 10.648L32.4136 10.696ZM33.7336 15.16C33.9096 15.16 34.0816 15.128 34.2496 15.064C34.4176 14.992 34.5656 14.872 34.6936 14.704C34.8216 14.536 34.9216 14.312 34.9936 14.032C35.0736 13.744 35.1136 13.388 35.1136 12.964C35.1136 12.588 35.0816 12.276 35.0176 12.028C34.9536 11.78 34.8616 11.584 34.7416 11.44C34.6216 11.296 34.4776 11.196 34.3096 11.14C34.1496 11.076 33.9736 11.044 33.7816 11.044C33.6696 11.044 33.5456 11.06 33.4096 11.092C33.2816 11.124 33.1536 11.168 33.0256 11.224C32.8976 11.272 32.7776 11.328 32.6656 11.392C32.5536 11.456 32.4656 11.52 32.4016 11.584V14.788C32.4656 14.836 32.5496 14.884 32.6536 14.932C32.7576 14.972 32.8696 15.012 32.9896 15.052C33.1096 15.084 33.2336 15.112 33.3616 15.136C33.4896 15.152 33.6136 15.16 33.7336 15.16ZM41.5447 16V11.824H41.4967L40.7527 13.036C40.6407 13.204 40.4927 13.436 40.3087 13.732C40.1327 14.02 39.9487 14.316 39.7567 14.62C39.5647 14.916 39.3847 15.192 39.2167 15.448C39.0567 15.704 38.9367 15.888 38.8567 16H37.6207V10.132H38.9167V14.26H38.9767C39.0727 14.1 39.1647 13.944 39.2527 13.792C39.3487 13.632 39.4487 13.472 39.5527 13.312C39.7287 13.04 39.9127 12.76 40.1047 12.472C40.2967 12.176 40.4807 11.888 40.6567 11.608C40.8407 11.32 41.0127 11.052 41.1727 10.804C41.3327 10.548 41.4727 10.324 41.5927 10.132H42.8527V16H41.5447ZM46.6437 7.864C46.7717 7.808 46.9277 7.744 47.1117 7.672C47.2957 7.6 47.4837 7.528 47.6757 7.456C47.8677 7.376 48.0517 7.3 48.2277 7.228C48.4037 7.156 48.5517 7.092 48.6717 7.036C48.7357 7.172 48.7997 7.304 48.8637 7.432C48.9277 7.56 48.9917 7.692 49.0557 7.828C48.7917 7.964 48.5397 8.088 48.2997 8.2C48.0677 8.304 47.8837 8.384 47.7477 8.44C47.3637 8.6 47.0197 8.756 46.7157 8.908C46.4197 9.052 46.1637 9.224 45.9477 9.424C45.7317 9.616 45.5557 9.848 45.4197 10.12C45.2837 10.392 45.1837 10.736 45.1197 11.152C45.1277 11.152 45.1357 11.156 45.1437 11.164C45.3517 10.876 45.6197 10.648 45.9477 10.48C46.2757 10.304 46.6437 10.216 47.0517 10.216C47.4917 10.216 47.8637 10.292 48.1677 10.444C48.4797 10.588 48.7317 10.792 48.9237 11.056C49.1157 11.312 49.2517 11.616 49.3317 11.968C49.4197 12.32 49.4637 12.704 49.4637 13.12C49.4637 13.488 49.4157 13.852 49.3197 14.212C49.2237 14.564 49.0637 14.88 48.8397 15.16C48.6237 15.44 48.3357 15.668 47.9757 15.844C47.6157 16.012 47.1717 16.096 46.6437 16.096C46.1157 16.096 45.6797 16.012 45.3357 15.844C44.9917 15.668 44.7157 15.44 44.5077 15.16C44.3077 14.88 44.1677 14.568 44.0877 14.224C44.0077 13.872 43.9677 13.516 43.9677 13.156C43.9677 12.74 43.9717 12.384 43.9797 12.088C43.9877 11.792 43.9997 11.544 44.0157 11.344C44.0317 11.144 44.0477 10.984 44.0637 10.864C44.0797 10.736 44.0997 10.628 44.1237 10.54C44.2677 9.916 44.5517 9.384 44.9757 8.944C45.4077 8.496 45.9637 8.136 46.6437 7.864ZM46.7997 11.128C46.5277 11.128 46.2957 11.196 46.1037 11.332C45.9117 11.468 45.7557 11.64 45.6357 11.848C45.5157 12.048 45.4277 12.276 45.3717 12.532C45.3237 12.78 45.2997 13.016 45.2997 13.24C45.2997 13.464 45.3157 13.692 45.3477 13.924C45.3797 14.148 45.4477 14.352 45.5517 14.536C45.6557 14.712 45.7997 14.86 45.9837 14.98C46.1677 15.092 46.4157 15.148 46.7277 15.148C47.0077 15.148 47.2357 15.092 47.4117 14.98C47.5957 14.868 47.7397 14.72 47.8437 14.536C47.9477 14.344 48.0197 14.132 48.0597 13.9C48.0997 13.66 48.1197 13.416 48.1197 13.168C48.1197 12.912 48.0997 12.664 48.0597 12.424C48.0277 12.176 47.9637 11.956 47.8677 11.764C47.7717 11.572 47.6357 11.42 47.4597 11.308C47.2917 11.188 47.0717 11.128 46.7997 11.128ZM56.3656 16V10.132H57.6736V16H56.3656ZM51.8776 13.012V15.1H53.4616C53.7736 15.1 54.0216 15.008 54.2056 14.824C54.3896 14.632 54.4816 14.384 54.4816 14.08C54.4816 13.744 54.3776 13.484 54.1696 13.3C53.9616 13.108 53.6976 13.012 53.3776 13.012H51.8776ZM51.8776 10.132V12.172H53.6776C54.0056 12.172 54.2976 12.224 54.5536 12.328C54.8176 12.424 55.0376 12.56 55.2136 12.736C55.3976 12.912 55.5336 13.116 55.6216 13.348C55.7176 13.572 55.7656 13.816 55.7656 14.08C55.7656 14.368 55.7136 14.632 55.6096 14.872C55.5136 15.104 55.3776 15.304 55.2016 15.472C55.0256 15.64 54.8176 15.772 54.5776 15.868C54.3376 15.956 54.0776 16 53.7976 16H50.5816V10.132H51.8776ZM62.6199 16V11.056H60.9279L60.8919 11.704C60.8519 12.344 60.8079 12.928 60.7599 13.456C60.7199 13.984 60.6319 14.448 60.4959 14.848C60.3599 15.24 60.1559 15.564 59.8839 15.82C59.6119 16.076 59.2319 16.256 58.7439 16.36L58.4079 15.472C58.7199 15.352 58.9599 15.204 59.1279 15.028C59.2959 14.852 59.4199 14.62 59.4999 14.332C59.5879 14.044 59.6439 13.684 59.6679 13.252C59.6999 12.812 59.7319 12.276 59.7639 11.644L59.8359 10.12H63.9279V16H62.6199ZM66.5378 13.012V15.1H68.1217C68.4338 15.1 68.6818 15.008 68.8658 14.824C69.0498 14.632 69.1418 14.384 69.1418 14.08C69.1418 13.744 69.0378 13.484 68.8298 13.3C68.6218 13.108 68.3578 13.012 68.0378 13.012H66.5378ZM66.5378 10.132V12.172H68.3378C68.6658 12.172 68.9578 12.224 69.2138 12.328C69.4778 12.424 69.6978 12.56 69.8738 12.736C70.0578 12.912 70.1938 13.116 70.2818 13.348C70.3778 13.572 70.4258 13.816 70.4258 14.08C70.4258 14.368 70.3738 14.632 70.2698 14.872C70.1738 15.104 70.0378 15.304 69.8618 15.472C69.6858 15.64 69.4778 15.772 69.2378 15.868C68.9978 15.956 68.7378 16 68.4578 16H65.2418V10.132H66.5378Z" fill="white"/>
</svg>
